<?xml version="1.0" encoding="UTF-8"?>
<svg xmlns="http://www.w3.org/2000/svg" width="101" height="100" viewBox="0 0 101 100" fill="none">
  <circle cx="50.5" cy="50" r="50" fill="#F7F6FA"></circle>
  <g clip-path="url(#clip0_1049_4578)">
    <path d="M62.5543 53.707H38.4471C36.45 53.707 34.8311 55.326 34.8311 57.3231V76.6088C34.8311 78.6059 36.45 80.2249 38.4471 80.2249H62.5543C64.5514 80.2249 66.1703 78.6059 66.1703 76.6088V57.3231C66.1703 55.326 64.5514 53.707 62.5543 53.707Z" stroke="#34166E" stroke-width="2" stroke-linecap="round" stroke-linejoin="round"></path>
    <path d="M66.1699 60.9414H68.5806C69.9065 60.9414 70.9914 62.0262 70.9914 63.3521V70.5843C70.9914 71.9102 69.9065 72.995 68.5806 72.995H66.1699V60.9414Z" stroke="#34166E" stroke-width="2" stroke-linecap="round" stroke-linejoin="round"></path>
    <path d="M32.4195 60.9414H34.8302V72.995H32.4195C31.0936 72.995 30.0088 71.9102 30.0088 70.5843V63.3521C30.0088 62.0262 31.0936 60.9414 32.4195 60.9414Z" stroke="#34166E" stroke-width="2" stroke-linecap="round" stroke-linejoin="round"></path>
    <path d="M56.5272 71.7891C53.2004 75.0074 47.8004 75.0074 44.4736 71.7891" stroke="#34166E" stroke-width="2" stroke-linecap="round" stroke-linejoin="round"></path>
    <path d="M44.4732 65.7628C45.8046 65.7628 46.8839 64.6835 46.8839 63.3521C46.8839 62.0207 45.8046 60.9414 44.4732 60.9414C43.1418 60.9414 42.0625 62.0207 42.0625 63.3521C42.0625 64.6835 43.1418 65.7628 44.4732 65.7628Z" stroke="#34166E" stroke-width="2" stroke-linecap="round" stroke-linejoin="round"></path>
    <path d="M56.5269 65.7628C57.8583 65.7628 58.9376 64.6835 58.9376 63.3521C58.9376 62.0207 57.8583 60.9414 56.5269 60.9414C55.1955 60.9414 54.1162 62.0207 54.1162 63.3521C54.1162 64.6835 55.1955 65.7628 56.5269 65.7628Z" stroke="#34166E" stroke-width="2" stroke-linecap="round" stroke-linejoin="round"></path>
    <path d="M50.5 48.8867V53.7081" stroke="#34166E" stroke-width="2" stroke-linecap="round" stroke-linejoin="round"></path>
    <path d="M50.5006 48.8878C51.832 48.8878 52.9113 47.8085 52.9113 46.4771C52.9113 45.1457 51.832 44.0664 50.5006 44.0664C49.1692 44.0664 48.0898 45.1457 48.0898 46.4771C48.0898 47.8085 49.1692 48.8878 50.5006 48.8878Z" stroke="#34166E" stroke-width="2" stroke-linecap="round" stroke-linejoin="round"></path>
  </g>
  <path d="M50.5143 34.7448C50.5143 34.7448 50.5 34.7448 50.5 34.7305V29.0162C50.5 29.0162 50.5 29.002 50.5143 29.002C50.5286 29.002 50.5286 29.002 50.5286 29.0162V34.7305C50.5286 34.7305 50.5286 34.7448 50.5143 34.7448Z" stroke="#AE93D6" stroke-width="1.75" stroke-linecap="round" stroke-linejoin="round"></path>
  <path d="M46.2291 37.5997C46.2291 37.5997 46.2148 37.5997 46.2148 37.5854V26.1569C46.2148 26.1569 46.2148 26.1426 46.2291 26.1426C46.2434 26.1426 46.2434 26.1426 46.2434 26.1569V37.5854C46.2434 37.5854 46.2434 37.5997 46.2291 37.5997Z" stroke="#AE93D6" stroke-width="1.75" stroke-linecap="round" stroke-linejoin="round"></path>
  <path d="M41.943 44.7448C41.943 44.7448 41.9287 44.7448 41.9287 44.7305V19.0162C41.9287 19.0162 41.9287 19.002 41.943 19.002C41.9573 19.002 41.9573 19.002 41.9573 19.0162V44.7305C41.9573 44.7305 41.9573 44.7448 41.943 44.7448Z" stroke="#AE93D6" stroke-width="1.75" stroke-linecap="round" stroke-linejoin="round"></path>
  <path d="M37.6569 39.0311C37.6569 39.0311 37.6426 39.0311 37.6426 39.0168V24.7311C37.6426 24.7311 37.6426 24.7168 37.6569 24.7168C37.6711 24.7168 37.6711 24.7168 37.6711 24.7311V39.0168C37.6711 39.0168 37.6711 39.0311 37.6569 39.0311Z" stroke="#AE93D6" stroke-width="1.75" stroke-linecap="round" stroke-linejoin="round"></path>
  <path d="M33.3717 34.0311C33.3717 34.0311 33.3574 34.0311 33.3574 34.0168V29.7311C33.3574 29.7311 33.3574 29.7168 33.3717 29.7168C33.386 29.7168 33.386 29.7168 33.386 29.7311V34.0168C33.386 34.0168 33.386 34.0311 33.3717 34.0311Z" stroke="#AE93D6" stroke-width="1.75" stroke-linecap="round" stroke-linejoin="round"></path>
  <path d="M54.8004 37.5997C54.8004 37.5997 54.7861 37.5997 54.7861 37.5854V26.1569C54.7861 26.1569 54.7861 26.1426 54.8004 26.1426C54.8147 26.1426 54.8147 26.1426 54.8147 26.1569V37.5854C54.8147 37.5854 54.8147 37.5997 54.8004 37.5997Z" stroke="#AE93D6" stroke-width="1.75" stroke-linecap="round" stroke-linejoin="round"></path>
  <path d="M59.0856 44.7448C59.0856 44.7448 59.0713 44.7448 59.0713 44.7305V19.0162C59.0713 19.0162 59.0713 19.002 59.0856 19.002C59.0999 19.002 59.0999 19.002 59.0999 19.0162V44.7305C59.0999 44.7305 59.0999 44.7448 59.0856 44.7448Z" stroke="#AE93D6" stroke-width="1.75" stroke-linecap="round" stroke-linejoin="round"></path>
  <path d="M63.3717 39.0311C63.3717 39.0311 63.3574 39.0311 63.3574 39.0168V24.7311C63.3574 24.7311 63.3574 24.7168 63.3717 24.7168C63.386 24.7168 63.386 24.7168 63.386 24.7311V39.0168C63.386 39.0168 63.386 39.0311 63.3717 39.0311Z" stroke="#AE93D6" stroke-width="1.75" stroke-linecap="round" stroke-linejoin="round"></path>
  <path d="M67.6569 34.0311C67.6569 34.0311 67.6426 34.0311 67.6426 34.0168V29.7311C67.6426 29.7311 67.6426 29.7168 67.6569 29.7168C67.6711 29.7168 67.6712 29.7168 67.6712 29.7311V34.0168C67.6712 34.0168 67.6711 34.0311 67.6569 34.0311Z" stroke="#AE93D6" stroke-width="1.75" stroke-linecap="round" stroke-linejoin="round"></path>
  <defs>
    <clipPath id="clip0_1049_4578">
      <rect width="44.2857" height="38.5714" fill="white" transform="translate(28.3574 42.8594)"></rect>
    </clipPath>
  </defs>
</svg>
