<?xml version="1.0" encoding="UTF-8"?>
<svg xmlns="http://www.w3.org/2000/svg" width="46" height="48" viewBox="0 0 46 48" fill="none">
  <g id="Vector">
    <path d="M11.5907 21.9562C10.7631 23.8573 11.3415 26.1511 13.0857 27.4006C13.237 27.5077 13.4417 27.5702 13.6197 27.5702C13.9134 27.5702 14.1981 27.4274 14.385 27.1685C14.6609 26.7669 14.563 26.1511 14.1625 25.8655C13.2192 25.1871 12.8633 23.9733 13.2192 22.9201C14.1447 23.2861 15.1682 23.3842 16.1026 23.2236C17.562 22.9826 18.8435 22.1793 19.6979 20.9744C19.8313 20.787 19.9025 20.5103 19.8669 20.2782C19.8313 20.0373 19.6712 19.7874 19.4665 19.6446C19.066 19.3768 18.4609 19.4839 18.1761 19.8766C17.6065 20.671 16.7611 21.2065 15.7911 21.3671C14.83 21.5278 13.86 21.3046 13.059 20.7334C12.0712 20.0283 11.4928 18.8681 11.5284 17.6542C11.5284 17.4132 11.4305 17.1455 11.2703 16.9759C11.1457 16.842 10.9588 16.7438 10.772 16.7081C10.772 16.7081 10.7186 16.6992 10.6919 16.6992C10.6652 16.6992 10.6474 16.6992 10.6207 16.6992C10.3893 16.7081 10.1757 16.7706 10.0066 16.9045C9.80194 17.0652 9.65955 17.3508 9.65065 17.6185C9.60615 19.2965 10.3181 20.8941 11.5729 21.974L11.5907 21.9562Z" fill="#AE93D6"></path>
    <path d="M17.384 11.4597C17.8468 11.4597 18.3095 11.3972 18.7456 11.2812C18.977 11.2187 19.2083 11.0492 19.324 10.8439C19.4397 10.6386 19.4753 10.3619 19.4219 10.1388C19.3596 9.90672 19.1816 9.69251 18.977 9.57649C18.7723 9.46046 18.4964 9.40691 18.2739 9.46938C17.384 9.70144 16.4585 9.57649 15.6665 9.11237C14.8744 8.64826 14.3049 7.90746 14.0735 7.01494C13.9489 6.52405 13.4684 6.22952 12.9077 6.34555C12.4449 6.47942 12.1335 7.02386 12.2581 7.48798C12.6229 8.86247 13.4951 10.0138 14.7231 10.7368C15.533 11.2098 16.4585 11.4597 17.3929 11.4597H17.384Z" fill="#AE93D6"></path>
    <path d="M19.7778 38.5945C19.5732 38.4874 19.3062 38.4606 19.0926 38.5231C18.2472 38.764 17.3573 38.6569 16.5919 38.2285C15.8266 37.8001 15.2748 37.095 15.0346 36.2471C14.7409 35.1939 14.9812 34.0694 15.6842 33.2215C16.0135 32.8287 15.9601 32.2308 15.5507 31.8916C15.177 31.5881 14.554 31.6417 14.2425 32.0166C13.139 33.3375 12.7564 35.1047 13.228 36.7559C13.4149 37.4253 13.7353 38.0411 14.1624 38.5766C13.851 38.7283 13.5128 38.8176 13.1568 38.8176V38.9158C13.1568 38.9158 13.1301 38.9158 13.1123 38.9158V38.8176C12.4983 38.8087 11.9199 38.5498 11.5105 38.1214C11.3414 37.934 11.1011 37.8269 10.843 37.818C10.6028 37.818 10.3358 37.9161 10.1578 38.0857C9.81074 38.4249 9.80184 39.0586 10.14 39.4067C10.9142 40.2189 11.9465 40.674 13.05 40.6919C13.0589 40.6919 13.139 40.6919 13.1568 40.6919C14.0646 40.6919 14.9278 40.3795 15.6575 39.8351C15.6664 39.8351 15.6753 39.8529 15.6842 39.8529C16.4495 40.2813 17.3217 40.5134 18.1938 40.5134C18.6743 40.5134 19.146 40.4509 19.591 40.317C19.8312 40.2546 20.0448 40.0939 20.1694 39.8708C20.2851 39.6655 20.3207 39.3799 20.2584 39.1478C20.1872 38.9158 20.0003 38.6837 19.7867 38.5677L19.7778 38.5945Z" fill="#AE93D6"></path>
    <path d="M43.8504 29.3641C45.1319 28.0521 45.8705 26.3116 45.9417 24.4641C45.9773 24.3749 46.004 24.2767 46.004 24.1785C46.004 22.1971 45.2031 20.3406 43.8771 18.9662C43.9483 18.6181 43.9839 18.27 43.9928 17.9219C44.0284 17.8327 44.0551 17.7345 44.0551 17.6363C44.0551 15.0837 42.6757 12.8524 40.6289 11.6385C40.6734 11.3618 40.6912 11.0762 40.6912 10.7996C40.6912 9.07698 39.561 7.37226 38.057 6.65824C37.7455 3.72183 35.2627 1.41911 32.2547 1.41911C31.8721 1.41911 31.4894 1.47267 31.1156 1.54407C30.1189 0.54444 28.8018 0 27.3958 0C25.5625 0 23.9429 0.937151 22.9996 2.36519C22.0474 0.937151 20.4366 0 18.6034 0C17.1973 0 15.8802 0.54444 14.8835 1.54407C14.5097 1.47267 14.1271 1.41911 13.7444 1.41911C10.7365 1.41911 8.25358 3.7129 7.94211 6.65824C6.43814 7.36333 5.30794 9.07698 5.30794 10.7996C5.30794 11.0762 5.33464 11.3618 5.37024 11.6475C3.32342 12.8613 1.94404 15.0926 1.94404 17.6452C1.94404 17.7612 1.97074 17.8594 2.00634 17.9665C2.02414 18.3057 2.05973 18.6449 2.12203 18.984C0.796046 20.3585 -0.00488281 22.215 -0.00488281 24.1964C-0.00488281 24.3035 0.0218148 24.4106 0.0574116 24.5087C0.137504 26.3473 0.876139 28.0699 2.14873 29.3819C1.61477 30.3637 1.3033 31.4794 1.3033 32.6753C1.3033 32.8003 1.33 32.9253 1.37449 33.0324C1.49908 35.4689 2.88736 37.6199 5.04987 38.7177C5.04987 38.7624 5.06767 38.8159 5.07656 38.8605C5.21895 42.1093 7.69293 44.8405 10.8966 45.2867C12.276 47.0004 14.3762 48.0089 16.5743 48.0089C19.342 48.0089 21.7537 46.4559 22.9907 44.18C24.2277 46.4559 26.6482 48.0089 29.407 48.0089C31.6051 48.0089 33.7053 47.0004 35.0847 45.2867C38.2973 44.8405 40.7802 42.1004 40.9048 38.8338C40.9137 38.7981 40.9226 38.7624 40.9315 38.7267C43.1029 37.6289 44.5 35.46 44.6157 33.0056C44.6602 32.8985 44.6869 32.7914 44.6869 32.6843C44.6869 31.4883 44.3755 30.3726 43.8415 29.3909L43.8504 29.3641ZM16.5832 46.206C14.8212 46.206 13.1392 45.3403 12.098 43.8944C11.9468 43.6802 11.7065 43.5463 11.4484 43.5285C8.92102 43.3321 6.9454 41.2257 6.8742 38.6999C6.8831 38.6463 6.9098 38.6017 6.9098 38.5482C6.9098 36.9773 7.62174 35.5404 8.86763 34.5943C9.27699 34.2819 9.36598 33.6928 9.05451 33.2733C8.91212 33.0859 8.66294 32.9342 8.42267 32.9074C8.19129 32.8806 7.92431 32.952 7.73743 33.0948C6.50934 34.0231 5.66391 35.3083 5.28125 36.7453C3.99976 35.8527 3.20773 34.4247 3.15434 32.8181C3.16323 32.7646 3.18993 32.711 3.18993 32.6575C3.18993 29.9264 5.40584 27.704 8.12899 27.704C8.61845 27.704 9.06341 27.2577 9.06341 26.7668C9.06341 26.2759 8.61845 25.8297 8.12899 25.8297C6.21566 25.8297 4.48032 26.6329 3.24333 27.9093C2.3801 26.9275 1.89065 25.6779 1.84615 24.357C1.85505 24.2945 1.88175 24.241 1.88175 24.1785C1.88175 21.849 3.34122 19.7427 5.51263 18.9215C5.99318 18.7341 6.23346 18.2075 6.05548 17.7255C5.97538 17.5024 5.7885 17.2971 5.57492 17.199C5.36134 17.1008 5.06767 17.0829 4.84518 17.1722C4.48032 17.3061 4.14215 17.4667 3.80398 17.6541C3.80398 17.6541 3.80398 17.6452 3.80398 17.6363C3.80398 14.8248 6.08217 12.54 8.88542 12.54C10.2381 12.54 11.5196 13.0666 12.4807 14.0305C12.8278 14.3786 13.4596 14.3786 13.8067 14.0305C14.1538 13.6824 14.1538 13.0487 13.8067 12.7006C12.4896 11.3797 10.7454 10.6567 8.88542 10.6567C8.26248 10.6567 7.65733 10.746 7.07889 10.9067C7.07889 10.871 7.07889 10.8263 7.07889 10.7906C7.07889 9.81778 7.71963 8.88062 8.44046 8.41651C8.57395 8.48791 8.71634 8.54147 8.86763 8.54147C8.89432 8.54147 8.91212 8.54147 8.93882 8.54147C9.45497 8.49684 9.83764 8.04165 9.79314 7.47936C9.79314 7.40796 9.78424 7.33656 9.78424 7.26515C9.78424 5.07847 11.5641 3.29342 13.7444 3.29342C14.4207 3.29342 15.0882 3.47192 15.7111 3.82001C16.165 4.05206 16.7078 3.88248 16.957 3.43622C17.1528 3.07921 17.0549 2.59725 16.7701 2.31164C17.3219 1.97248 17.9448 1.77613 18.6034 1.77613C20.5345 1.77613 22.1096 3.35589 22.1096 5.29267V16.1993C20.8727 14.8695 19.1195 14.0305 17.1617 14.0305C16.6722 14.0305 16.2273 14.4768 16.2273 14.9676C16.2273 15.4585 16.6722 15.9048 17.1617 15.9048C19.8581 15.9048 22.0563 18.1093 22.0563 20.8137C22.0563 20.894 22.0829 20.9743 22.1007 21.0547V30.6582C21.1218 29.7746 19.8403 29.2302 18.4254 29.2302C17.9092 29.2302 17.491 29.6497 17.491 30.1674C17.491 30.685 17.9359 31.1045 18.4254 31.1045C20.4277 31.1045 22.0563 32.7378 22.0563 34.746C22.0563 34.8263 22.0829 34.9067 22.1007 34.987V40.6456C22.1007 43.707 19.6179 46.1882 16.5743 46.1882L16.5832 46.206ZM40.7268 36.7453C40.3352 35.3083 39.4898 34.0231 38.2706 33.0948C38.2706 33.0948 38.2617 33.0948 38.2528 33.0859C37.8434 32.7914 37.265 32.8717 36.9446 33.2912C36.6509 33.6839 36.7399 34.3087 37.1315 34.6032C38.3774 35.5493 39.0982 36.9862 39.0982 38.5571C39.0982 38.6106 39.1249 38.6642 39.1338 38.7177C39.0537 41.2347 37.0781 43.341 34.5596 43.5374C34.3016 43.5552 34.0613 43.6891 33.91 43.9033C32.8688 45.3492 31.1957 46.215 29.4248 46.215C26.3724 46.215 23.8984 43.7248 23.8984 40.6724V34.9959C23.9162 34.9245 23.9429 34.8531 23.9429 34.7728C23.9429 34.5407 23.9251 34.3087 23.8984 34.0855V32.7021C23.9162 32.6307 23.9429 32.5593 23.9429 32.479C23.9429 30.9795 25.1621 29.7568 26.666 29.7568C27.1822 29.7568 27.6005 29.3373 27.6005 28.8196C27.6005 28.302 27.1555 27.8825 26.666 27.8825C25.6248 27.8825 24.6726 28.2484 23.8984 28.8375V21.0636C23.9162 20.9922 23.9429 20.9208 23.9429 20.8405C23.9429 20.5816 23.9251 20.3228 23.8984 20.064V17.4489C23.9162 17.3775 23.9429 17.3061 23.9429 17.2257C23.9429 15.7174 25.1621 14.4946 26.666 14.4946C27.1822 14.4946 27.6005 14.0751 27.6005 13.5575C27.6005 13.0398 27.1555 12.6203 26.666 12.6203C25.6248 12.6203 24.6726 12.9862 23.8984 13.5753V5.29267C23.8984 3.35589 25.4735 1.77613 27.4047 1.77613C28.0632 1.77613 28.6862 1.97248 29.2379 2.31164C28.9442 2.59725 28.8463 3.04351 29.0688 3.463C29.318 3.87356 29.9142 4.03421 30.3325 3.79323C30.9199 3.463 31.5873 3.28449 32.2725 3.28449C34.4528 3.28449 36.2327 5.06954 36.2327 7.25623C36.2327 7.32763 36.2327 7.39903 36.2149 7.53291C36.1971 7.78282 36.3039 8.05058 36.473 8.22908C36.642 8.40759 36.9001 8.54147 37.1493 8.54147C37.3095 8.54147 37.4519 8.48791 37.5765 8.42544C38.2973 8.89848 38.9202 9.8267 38.9202 10.7996C38.9202 10.8353 38.9202 10.8799 38.9202 10.9156C38.3418 10.7549 37.7367 10.6657 37.1137 10.6657C35.2538 10.6657 33.5095 11.3886 32.1924 12.7096C31.8276 13.0755 31.8276 13.6735 32.1924 14.0394C32.5573 14.4054 33.1714 14.3875 33.5184 14.0394C34.4795 13.0755 35.7521 12.5489 37.1137 12.5489C39.917 12.5489 42.1952 14.8338 42.1952 17.6452C42.1952 17.6452 42.1952 17.6541 42.1952 17.6631C41.8659 17.4756 41.5188 17.315 41.1628 17.1811C41.1539 17.1811 41.1361 17.1811 41.1272 17.1722C40.6467 17.0115 40.1305 17.2614 39.9526 17.7523C39.7924 18.2075 40.0504 18.7787 40.5043 18.9483C42.6757 19.7605 44.1352 21.8758 44.1352 24.2053C44.1352 24.2678 44.1619 24.3302 44.1708 24.3927C44.1263 25.7136 43.6279 26.9543 42.7736 27.936C41.5366 26.6597 39.8013 25.8565 37.8879 25.8565C37.3718 25.8565 36.9535 26.2759 36.9535 26.7936C36.9535 27.3113 37.3985 27.7308 37.8879 27.7308C40.6111 27.7308 42.827 29.9531 42.827 32.6843C42.827 32.7467 42.8537 32.8003 42.8626 32.8539C42.8092 34.4515 42.0083 35.8795 40.7357 36.772L40.7268 36.7453Z" fill="#AE93D6"></path>
    <path d="M37.7455 18.5833C37.7811 18.3512 37.7099 18.0745 37.5765 17.8871C37.4341 17.6907 37.1938 17.5479 36.9535 17.5122C35.4851 17.298 34.0257 17.664 32.8421 18.5476C32.0411 19.1455 31.436 19.922 31.0622 20.8413C30.6796 20.6628 30.3414 20.3862 30.0833 20.0381C29.674 19.4847 29.496 18.7975 29.6028 18.0924C29.6651 17.6015 29.3358 17.1374 28.8463 17.0481C28.3569 16.9589 27.814 17.3426 27.7428 17.8335C27.5648 19.0206 27.8674 20.1987 28.5705 21.1627C29.0955 21.8677 29.7985 22.3943 30.6084 22.6978C30.5105 24.349 31.1601 25.9734 32.3971 27.1158C32.5573 27.2675 32.8065 27.3568 33.029 27.3568C33.287 27.3568 33.5451 27.2497 33.732 27.0444C34.0524 26.6785 34.0257 26.0537 33.6697 25.7235C32.7709 24.8934 32.3437 23.6796 32.5217 22.4747C32.6641 21.5018 33.1802 20.645 33.9634 20.0648C34.7554 19.4758 35.7165 19.2348 36.6865 19.3776C37.2027 19.4579 37.6921 19.0741 37.7544 18.5922L37.7455 18.5833Z" fill="#AE93D6"></path>
    <path d="M27.992 10.0941C28.9353 8.44292 31.0444 7.86278 32.6908 8.80885C32.9043 8.93381 33.1624 8.96058 33.4027 8.8981C33.6252 8.83563 33.8477 8.66605 33.9633 8.46077C34.079 8.25549 34.1146 7.96988 34.0523 7.73782C33.99 7.51469 33.821 7.29156 33.6163 7.17553C32.3882 6.47044 30.9554 6.28301 29.576 6.65787C28.2056 7.03273 27.0576 7.91633 26.3545 9.14801C26.2299 9.36222 26.1943 9.62998 26.2655 9.87096C26.3189 10.0852 26.4791 10.2904 26.666 10.4065C26.8084 10.4957 27.0042 10.5582 27.1733 10.5582C27.4936 10.5582 27.8318 10.3618 27.9831 10.0852L27.992 10.0941Z" fill="#AE93D6"></path>
    <path d="M33.9455 33.5678C33.9455 33.5678 33.8654 33.5678 33.8298 33.5678C33.5895 33.5946 33.3404 33.7285 33.1891 33.9159C33.0378 34.1033 32.9577 34.3711 32.9844 34.6032C33.0556 35.3172 32.6907 35.9776 32.1034 36.3079C31.9877 35.8081 31.7919 35.3261 31.4893 34.8709C30.6706 33.6392 29.3001 32.9074 27.8228 32.8984C27.3067 32.8984 26.8884 33.3179 26.8884 33.8356C26.8884 34.3265 27.3334 34.7727 27.8228 34.7727C28.6772 34.7727 29.4692 35.2012 29.9409 35.9152C30.3235 36.4864 30.457 37.1647 30.3235 37.843C30.19 38.5213 29.8074 39.1015 29.2289 39.4942C28.8196 39.7798 28.7039 40.3332 29.0064 40.8241C29.1755 41.0561 29.4781 41.2078 29.7629 41.2078C29.9409 41.2078 30.1366 41.1454 30.2879 41.0472C31.2757 40.3778 31.9076 39.3782 32.1479 38.2893C32.8954 38.1019 33.5717 37.6824 34.0701 37.0665C34.6841 36.3168 34.96 35.3707 34.8621 34.3979C34.8176 33.9605 34.3994 33.5768 33.9544 33.5589L33.9455 33.5678Z" fill="#AE93D6"></path>
  </g>
</svg>
