<?xml version="1.0" encoding="UTF-8"?>
<svg xmlns="http://www.w3.org/2000/svg" id="Layer_2" viewBox="0 0 23.33 24.5">
  <defs>
    <style>.cls-1{fill:#2bd78d;fill-rule:evenodd;}.cls-1,.cls-2,.cls-3{stroke-width:0px;}.cls-2{fill:#35095f;}.cls-3{fill:#010101;}</style>
  </defs>
  <g id="Layer_1-2">
    <circle class="cls-2" cx="11.66" cy="12.84" r="11.66"></circle>
    <circle class="cls-3" cx="11.66" cy="11.5" r="11.5"></circle>
    <path class="cls-1" d="M11.66,1.5C6.14,1.5,1.66,5.98,1.66,11.5s4.48,10,10,10,10-4.48,10-10S17.19,1.5,11.66,1.5ZM16,9.81c.08-.09.14-.2.18-.31.04-.12.05-.24.04-.36,0-.12-.04-.24-.1-.35s-.13-.2-.23-.28c-.09-.08-.2-.14-.32-.17-.12-.04-.24-.05-.36-.03-.12.01-.24.05-.34.11s-.2.14-.28.23l-3.91,4.69-2.02-2.02c-.17-.17-.4-.26-.64-.26-.24,0-.47.1-.63.27-.17.17-.26.4-.27.63,0,.24.09.47.26.64l2.73,2.73c.09.09.2.16.31.2.12.05.24.07.37.06.13,0,.25-.04.36-.09.11-.06.21-.14.29-.23l4.55-5.45Z"></path>
  </g>
</svg>
