<?xml version="1.0" encoding="UTF-8"?>
<svg xmlns="http://www.w3.org/2000/svg" width="50" height="36" viewBox="0 0 50 36" fill="none">
  <path id="Vector" d="M31 13.0098V12.1598C30.5306 12.1598 30.15 12.5403 30.15 13.0098H31ZM35 13.0098H35.85C35.85 12.5403 35.4694 12.1598 35 12.1598V13.0098ZM35 17.0098V17.8598C35.4694 17.8598 35.85 17.4792 35.85 17.0098H35ZM31 17.0098H30.15C30.15 17.4792 30.5306 17.8598 31 17.8598V17.0098ZM23 13.0098V12.1598C22.5306 12.1598 22.15 12.5403 22.15 13.0098H23ZM27 13.0098H27.85C27.85 12.5403 27.4694 12.1598 27 12.1598V13.0098ZM27 17.0098V17.8598C27.4694 17.8598 27.85 17.4792 27.85 17.0098H27ZM23 17.0098H22.15C22.15 17.4792 22.5306 17.8598 23 17.8598V17.0098ZM15 13.0098V12.1598C14.5306 12.1598 14.15 12.5403 14.15 13.0098H15ZM19 13.0098H19.85C19.85 12.5403 19.4694 12.1598 19 12.1598V13.0098ZM19 17.0098V17.8598C19.4694 17.8598 19.85 17.4792 19.85 17.0098H19ZM15 17.0098H14.15C14.15 17.4792 14.5306 17.8598 15 17.8598V17.0098ZM31 21.0098V20.1598C30.5306 20.1598 30.15 20.5403 30.15 21.0098H31ZM35 21.0098H35.85C35.85 20.5403 35.4694 20.1598 35 20.1598V21.0098ZM35 25.0098V25.8598C35.4694 25.8598 35.85 25.4792 35.85 25.0098H35ZM31 25.0098H30.15C30.15 25.4792 30.5306 25.8598 31 25.8598V25.0098ZM23 21.0098V20.1598C22.5306 20.1598 22.15 20.5403 22.15 21.0098H23ZM27 21.0098H27.85C27.85 20.5403 27.4694 20.1598 27 20.1598V21.0098ZM27 25.0098V25.8598C27.4694 25.8598 27.85 25.4792 27.85 25.0098H27ZM23 25.0098H22.15C22.15 25.4792 22.5306 25.8598 23 25.8598V25.0098ZM15 21.0098V20.1598C14.5306 20.1598 14.15 20.5403 14.15 21.0098H15ZM19 21.0098H19.85C19.85 20.5403 19.4694 20.1598 19 20.1598V21.0098ZM19 25.0098V25.8598C19.4694 25.8598 19.85 25.4792 19.85 25.0098H19ZM15 25.0098H14.15C14.15 25.4792 14.5306 25.8598 15 25.8598V25.0098ZM31 5.00977V4.15977C30.5306 4.15977 30.15 4.54032 30.15 5.00977H31ZM35 5.00977H35.85C35.85 4.54032 35.4694 4.15977 35 4.15977V5.00977ZM35 9.00977V9.85977C35.4694 9.85977 35.85 9.47921 35.85 9.00977H35ZM31 9.00977H30.15C30.15 9.47921 30.5306 9.85977 31 9.85977V9.00977ZM23 5.00977V4.15977C22.5306 4.15977 22.15 4.54032 22.15 5.00977H23ZM27 5.00977H27.85C27.85 4.54032 27.4694 4.15977 27 4.15977V5.00977ZM27 9.00977V9.85977C27.4694 9.85977 27.85 9.47921 27.85 9.00977H27ZM23 9.00977H22.15C22.15 9.47921 22.5306 9.85977 23 9.85977V9.00977ZM15 5.00977V4.15977C14.5306 4.15977 14.15 4.54032 14.15 5.00977H15ZM19 5.00977H19.85C19.85 4.54032 19.4694 4.15977 19 4.15977V5.00977ZM19 9.00977V9.85977C19.4694 9.85977 19.85 9.47921 19.85 9.00977H19ZM15 9.00977H14.15C14.15 9.47921 14.5306 9.85977 15 9.85977V9.00977ZM21 29.0098V28.1598C20.5306 28.1598 20.15 28.5403 20.15 29.0098H21ZM29 29.0098H29.85C29.85 28.5403 29.4694 28.1598 29 28.1598V29.0098ZM1 34.1598C0.530558 34.1598 0.15 34.5403 0.15 35.0098C0.15 35.4792 0.530558 35.8598 1 35.8598V34.1598ZM49 35.8598C49.4694 35.8598 49.85 35.4792 49.85 35.0098C49.85 34.5403 49.4694 34.1598 49 34.1598V35.8598ZM39 1.00977H39.85C39.85 0.540324 39.4694 0.159766 39 0.159766V1.00977ZM11 1.00977V0.159766C10.5306 0.159766 10.15 0.540324 10.15 1.00977L11 1.00977ZM45 5.00977H45.85C45.85 4.54032 45.4694 4.15977 45 4.15977V5.00977ZM5 5.00977V4.15977C4.53056 4.15977 4.15 4.54032 4.15 5.00977H5ZM31 13.8598H35V12.1598H31V13.8598ZM34.15 13.0098V17.0098H35.85V13.0098H34.15ZM35 16.1598H31V17.8598H35V16.1598ZM31.85 17.0098V13.0098H30.15V17.0098H31.85ZM23 13.8598H27V12.1598H23V13.8598ZM26.15 13.0098V17.0098H27.85V13.0098H26.15ZM27 16.1598H23V17.8598H27V16.1598ZM23.85 17.0098V13.0098H22.15V17.0098H23.85ZM15 13.8598H19V12.1598H15V13.8598ZM18.15 13.0098V17.0098H19.85V13.0098H18.15ZM19 16.1598H15V17.8598H19V16.1598ZM15.85 17.0098V13.0098H14.15V17.0098H15.85ZM31 21.8598H35V20.1598H31V21.8598ZM34.15 21.0098V25.0098H35.85V21.0098H34.15ZM35 24.1598H31V25.8598H35V24.1598ZM31.85 25.0098V21.0098H30.15V25.0098H31.85ZM23 21.8598H27V20.1598H23V21.8598ZM26.15 21.0098V25.0098H27.85V21.0098H26.15ZM27 24.1598H23V25.8598H27V24.1598ZM23.85 25.0098V21.0098H22.15V25.0098H23.85ZM15 21.8598H19V20.1598H15V21.8598ZM18.15 21.0098V25.0098H19.85V21.0098H18.15ZM19 24.1598H15V25.8598H19V24.1598ZM15.85 25.0098V21.0098H14.15V25.0098H15.85ZM31 5.85977H35V4.15977H31V5.85977ZM34.15 5.00977V9.00977H35.85V5.00977H34.15ZM35 8.15977H31V9.85977H35V8.15977ZM31.85 9.00977V5.00977H30.15V9.00977H31.85ZM23 5.85977H27V4.15977H23V5.85977ZM26.15 5.00977V9.00977H27.85V5.00977H26.15ZM27 8.15977H23V9.85977H27V8.15977ZM23.85 9.00977V5.00977H22.15V9.00977H23.85ZM15 5.85977H19V4.15977H15V5.85977ZM18.15 5.00977V9.00977H19.85V5.00977H18.15ZM19 8.15977H15V9.85977H19V8.15977ZM15.85 9.00977V5.00977H14.15V9.00977H15.85ZM21.85 35.0098V29.0098H20.15V35.0098H21.85ZM21 29.8598H29V28.1598H21V29.8598ZM28.15 29.0098V35.0098H29.85V29.0098H28.15ZM1 35.8598H49V34.1598H1V35.8598ZM39.85 35.0098V1.00977H38.15V35.0098H39.85ZM39 0.159766H11V1.85977H39V0.159766ZM10.15 1.00977V35.0098H11.85V1.00977H10.15ZM45.85 35.0098V5.00977H44.15V35.0098H45.85ZM45 4.15977H39V5.85977H45V4.15977ZM5.85 35.0098V5.00977H4.15V35.0098H5.85ZM5 5.85977H11V4.15977H5V5.85977Z" fill="#AE93D6"></path>
</svg>
