<?xml version="1.0" encoding="UTF-8"?>
<svg xmlns="http://www.w3.org/2000/svg" width="19" height="19" viewBox="0 0 19 19" fill="none">
  <rect x="3" y="3" width="14" height="13" rx="6.5" fill="#010101"></rect>
  <path d="M10 18.25C6.76562 18.25 3.8125 16.5625 2.19531 13.75C0.578125 10.9727 0.578125 7.5625 2.19531 4.75C3.8125 1.97266 6.76562 0.25 10 0.25C13.1992 0.25 16.1523 1.97266 17.7695 4.75C19.3867 7.5625 19.3867 10.9727 17.7695 13.75C16.1523 16.5625 13.1992 18.25 10 18.25ZM8.59375 12.0625C8.10156 12.0625 7.75 12.4492 7.75 12.9062C7.75 13.3984 8.10156 13.75 8.59375 13.75H11.4062C11.8633 13.75 12.25 13.3984 12.25 12.9062C12.25 12.4492 11.8633 12.0625 11.4062 12.0625H11.125V8.96875C11.125 8.51172 10.7383 8.125 10.2812 8.125H8.59375C8.10156 8.125 7.75 8.51172 7.75 8.96875C7.75 9.46094 8.10156 9.8125 8.59375 9.8125H9.4375V12.0625H8.59375ZM10 4.75C9.36719 4.75 8.875 5.27734 8.875 5.875C8.875 6.50781 9.36719 7 10 7C10.5977 7 11.125 6.50781 11.125 5.875C11.125 5.27734 10.5977 4.75 10 4.75Z" fill="#2BD78D"></path>
</svg>
