<?xml version="1.0" encoding="UTF-8"?>
<svg xmlns="http://www.w3.org/2000/svg" width="54" height="47" viewBox="0 0 54 47" fill="none">
  <path id="Vector" d="M24.505 13.51L25.645 41.54H28.235L29.505 13.51M24.505 13.51H29.505M24.505 13.51L27.005 7.54M29.505 13.51L27.005 7.54M29.505 13.47C29.425 12.61 30.115 11.82 30.935 11.57C31.755 11.32 32.655 11.5 33.445 11.84C34.235 12.18 34.955 12.67 35.725 13.05C36.835 13.6 38.075 13.94 39.315 13.82C40.945 13.66 42.375 12.74 43.715 11.76C43.915 11.61 44.205 11.76 44.205 12.01V14.52M44.195 14.5V22.7M50.395 30.67C50.395 34.09 47.625 36.87 44.195 36.87C40.765 36.87 37.995 34.1 37.995 30.67M35.805 30.67H52.585M51.605 30.67L44.195 22.18M36.785 30.8L44.195 22.31M24.505 13.47C24.585 12.61 23.895 11.82 23.075 11.57C22.255 11.31 21.355 11.5 20.565 11.84C19.775 12.18 19.055 12.67 18.285 13.05C17.175 13.6 15.935 13.94 14.695 13.82C13.065 13.66 11.635 12.74 10.295 11.76C10.095 11.61 9.80504 11.76 9.80504 12.01V18.13M9.80504 18.12V22.18L2.39504 30.67M3.60504 30.67C3.60504 34.09 6.37504 36.87 9.80504 36.87C13.235 36.87 16.005 34.1 16.005 30.67M18.195 30.67H1.41504M17.215 30.8L9.80504 22.31M27.005 7.54C28.815 7.54 30.275 6.08 30.275 4.27C30.275 2.46 28.815 1 27.005 1C25.195 1 23.735 2.46 23.735 4.27C23.735 6.08 25.195 7.54 27.005 7.54ZM15.255 41.54H38.665V46.23H15.255V41.54Z" stroke="#AE93D6" stroke-width="1.5" stroke-linecap="round" stroke-linejoin="round"></path>
</svg>
