<?xml version="1.0" encoding="UTF-8"?>
<svg xmlns="http://www.w3.org/2000/svg" width="101" height="100" viewBox="0 0 101 100" fill="none">
  <circle cx="50.5" cy="50" r="50" fill="#F7F6FA"></circle>
  <path d="M28.5 57H40.5C40.5 59 39.3 63 34.5 63C29.7 63 28.5 59 28.5 57Z" fill="#AE93D6"></path>
  <path d="M61.5 57H73.5C73.5 59 72.3 63 67.5 63C62.7 63 61.5 59 61.5 57Z" fill="#AE93D6"></path>
  <path d="M48.6108 40.1698L49.7025 67.4375H52.1826L53.3988 40.1698M48.6108 40.1698H53.3988M48.6108 40.1698L51.0048 34.3621M53.3988 40.1698L51.0048 34.3621M53.3988 40.1309C53.3222 39.2943 53.9829 38.5258 54.7681 38.2826C55.5534 38.0394 56.4152 38.2145 57.1717 38.5452C57.9282 38.876 58.6176 39.3526 59.355 39.7223C60.4179 40.2574 61.6053 40.5881 62.7928 40.4714C64.3536 40.3157 65.723 39.4207 67.0062 38.4674C67.1977 38.3215 67.4754 38.4674 67.4754 38.7106V41.1523M67.4658 41.1329V49.1099M73.4029 56.8631C73.4029 60.1901 70.7503 62.8945 67.4658 62.8945C64.1813 62.8945 61.5287 60.1999 61.5287 56.8631M59.4316 56.8631H75.5M74.5616 56.8631L67.4658 48.604M60.37 56.9896L67.4658 48.7305M48.6108 40.1309C48.6874 39.2943 48.0267 38.5258 47.2415 38.2826C46.4562 38.0296 45.5944 38.2145 44.8379 38.5452C44.0814 38.876 43.3919 39.3526 42.6546 39.7223C41.5917 40.2574 40.4042 40.5881 39.2168 40.4714C37.656 40.3157 36.2866 39.4207 35.0034 38.4674C34.8119 38.3215 34.5342 38.4674 34.5342 38.7106V44.6642M34.5342 44.6544V48.604L27.4384 56.8631M28.5971 56.8631C28.5971 60.1901 31.2497 62.8945 34.5342 62.8945C37.8187 62.8945 40.4713 60.1999 40.4713 56.8631M42.5684 56.8631H26.5M41.63 56.9896L34.5342 48.7305M51.0048 34.3621C52.738 34.3621 54.1361 32.9419 54.1361 31.1811C54.1361 29.4203 52.738 28 51.0048 28C49.2715 28 47.8735 29.4203 47.8735 31.1811C47.8735 32.9419 49.2715 34.3621 51.0048 34.3621ZM39.7531 67.4375H62.1703V72H39.7531V67.4375Z" stroke="#34166E" stroke-width="1.9533" stroke-linecap="round" stroke-linejoin="round"></path>
</svg>
