<?xml version="1.0" encoding="UTF-8"?>
<svg xmlns="http://www.w3.org/2000/svg" width="204" height="34" viewBox="0 0 204 34" fill="none">
  <path d="M0.875 10.6335V6.63636H18.0866V10.6335H11.9119V27H7.05966V10.6335H0.875ZM18.9045 27V11.7273H23.6275V14.5114H23.7866C24.065 13.5038 24.5191 12.7547 25.1488 12.2642C25.7785 11.767 26.511 11.5185 27.3462 11.5185C27.5716 11.5185 27.8036 11.535 28.0423 11.5682C28.2809 11.5947 28.503 11.6378 28.7085 11.6974V15.9233C28.4764 15.8437 28.1715 15.7808 27.7937 15.7344C27.4225 15.688 27.091 15.6648 26.7994 15.6648C26.2227 15.6648 25.7023 15.794 25.2383 16.0526C24.7809 16.3045 24.4196 16.6591 24.1545 17.1165C23.896 17.5672 23.7667 18.0975 23.7667 18.7074V27H18.9045ZM34.4208 27.2585C33.4464 27.2585 32.5813 27.0961 31.8256 26.7713C31.0766 26.4399 30.4833 25.9427 30.0458 25.2798C29.6149 24.6103 29.3995 23.7718 29.3995 22.7642C29.3995 21.9157 29.5487 21.1998 29.8469 20.6165C30.1452 20.0331 30.5562 19.5592 31.0799 19.1946C31.6036 18.83 32.2068 18.5549 32.8896 18.3693C33.5723 18.1771 34.3015 18.0478 35.0771 17.9815C35.9454 17.902 36.6448 17.8191 37.1751 17.733C37.7054 17.6402 38.0898 17.5109 38.3285 17.3452C38.5737 17.1728 38.6964 16.9309 38.6964 16.6193V16.5696C38.6964 16.0592 38.5207 15.6648 38.1694 15.3864C37.8181 15.108 37.3441 14.9688 36.7475 14.9688C36.1045 14.9688 35.5875 15.108 35.1964 15.3864C34.8053 15.6648 34.5567 16.0492 34.4506 16.5398L29.9663 16.3807C30.0988 15.4527 30.4402 14.6241 30.9904 13.8949C31.5472 13.1591 32.3095 12.5824 33.2773 12.1648C34.2518 11.7405 35.4218 11.5284 36.7873 11.5284C37.7617 11.5284 38.6599 11.6444 39.4819 11.8764C40.3039 12.1018 41.0198 12.4332 41.6296 12.8707C42.2395 13.3016 42.7101 13.8319 43.0415 14.4616C43.3796 15.0914 43.5487 15.8106 43.5487 16.6193V27H38.9748V24.8722H38.8555C38.5837 25.3892 38.2357 25.8267 37.8114 26.1847C37.3938 26.5426 36.9 26.8111 36.3299 26.9901C35.7665 27.169 35.1301 27.2585 34.4208 27.2585ZM35.9222 24.0767C36.4459 24.0767 36.9165 23.9706 37.3342 23.7585C37.7584 23.5464 38.0965 23.2547 38.3484 22.8835C38.6003 22.5057 38.7262 22.0682 38.7262 21.571V20.1193C38.587 20.1922 38.418 20.2585 38.2191 20.3182C38.0269 20.3778 37.8147 20.4342 37.5827 20.4872C37.3507 20.5402 37.1121 20.5866 36.8668 20.6264C36.6216 20.6662 36.3862 20.7027 36.1609 20.7358C35.7035 20.8087 35.3124 20.9214 34.9876 21.0739C34.6694 21.2263 34.4241 21.4252 34.2518 21.6705C34.0861 21.9091 34.0032 22.1941 34.0032 22.5256C34.0032 23.0294 34.1822 23.4138 34.5401 23.679C34.9047 23.9441 35.3654 24.0767 35.9222 24.0767ZM51.3839 18.2898V27H46.5217V11.7273H51.1452V14.5312H51.3143C51.6523 13.5966 52.229 12.8641 53.0444 12.3338C53.8597 11.7969 54.8308 11.5284 55.9577 11.5284C57.0316 11.5284 57.963 11.7704 58.7518 12.2543C59.5472 12.7315 60.1637 13.401 60.6012 14.2628C61.0453 15.1179 61.2641 16.1188 61.2575 17.2656V27H56.3952V18.2202C56.4019 17.3717 56.1864 16.7088 55.7489 16.2315C55.3181 15.7543 54.7182 15.5156 53.9492 15.5156C53.4388 15.5156 52.988 15.6283 52.5969 15.8537C52.2125 16.0724 51.9142 16.3873 51.7021 16.7983C51.4966 17.2093 51.3905 17.7064 51.3839 18.2898ZM77.6016 16.3906L73.1371 16.5099C73.0907 16.1918 72.9647 15.91 72.7592 15.6648C72.5537 15.4129 72.2853 15.2173 71.9538 15.0781C71.629 14.9323 71.2512 14.8594 70.8203 14.8594C70.2569 14.8594 69.7763 14.9721 69.3786 15.1974C68.9875 15.4228 68.7952 15.7277 68.8018 16.1122C68.7952 16.4105 68.9145 16.669 69.1598 16.8878C69.4117 17.1065 69.8591 17.2822 70.5021 17.4148L73.4453 17.9716C74.9699 18.2633 76.1035 18.7472 76.8459 19.4233C77.5949 20.0994 77.9728 20.9943 77.9794 22.108C77.9728 23.1553 77.6612 24.0668 77.0447 24.8423C76.4349 25.6179 75.5997 26.2211 74.5391 26.652C73.4785 27.0762 72.2654 27.2884 70.8999 27.2884C68.719 27.2884 66.9988 26.8409 65.7393 25.946C64.4865 25.0445 63.7706 23.8381 63.5916 22.3267L68.3942 22.2074C68.5002 22.7642 68.7753 23.1884 69.2195 23.4801C69.6636 23.7718 70.2304 23.9176 70.9197 23.9176C71.5429 23.9176 72.05 23.8016 72.4411 23.5696C72.8322 23.3376 73.031 23.0294 73.0376 22.6449C73.031 22.3002 72.8786 22.0251 72.5803 21.8196C72.282 21.6075 71.8146 21.4418 71.1783 21.3224L68.5135 20.8153C66.9822 20.5369 65.8421 20.0232 65.093 19.2741C64.344 18.5185 63.9728 17.5573 63.9794 16.3906C63.9728 15.3698 64.2446 14.4981 64.7947 13.7756C65.3449 13.0464 66.1271 12.4896 67.1413 12.1051C68.1555 11.7206 69.352 11.5284 70.7308 11.5284C72.799 11.5284 74.4297 11.9626 75.6229 12.831C76.8161 13.6927 77.4756 14.8793 77.6016 16.3906ZM87.5025 27.2884C85.8917 27.2884 84.5096 26.9569 83.3562 26.294C82.2094 25.6312 81.3278 24.7098 80.7113 23.5298C80.0948 22.3433 79.7866 20.9711 79.7866 19.4134C79.7866 17.849 80.0948 16.4768 80.7113 15.2969C81.3344 14.1103 82.2193 13.1856 83.3661 12.5227C84.5195 11.8598 85.895 11.5284 87.4925 11.5284C88.9045 11.5284 90.1341 11.7836 91.1815 12.294C92.2354 12.8045 93.0574 13.527 93.6474 14.4616C94.244 15.3897 94.5588 16.4801 94.592 17.733H90.0479C89.9551 16.9508 89.69 16.3376 89.2525 15.8935C88.8216 15.4493 88.2582 15.2273 87.5621 15.2273C86.9987 15.2273 86.5049 15.3864 86.0806 15.7045C85.6564 16.0161 85.3249 16.4801 85.0863 17.0966C84.8543 17.7064 84.7383 18.4621 84.7383 19.3636C84.7383 20.2652 84.8543 21.0275 85.0863 21.6506C85.3249 22.267 85.6564 22.7344 86.0806 23.0526C86.5049 23.3641 86.9987 23.5199 87.5621 23.5199C88.0129 23.5199 88.4106 23.4238 88.7553 23.2315C89.1067 23.0393 89.395 22.7576 89.6204 22.3864C89.8458 22.0085 89.9883 21.5511 90.0479 21.0142H94.592C94.5456 22.2737 94.2307 23.3741 93.6474 24.3153C93.0707 25.2566 92.2586 25.9891 91.2113 26.5128C90.1706 27.0298 88.9343 27.2884 87.5025 27.2884ZM97.0803 27V11.7273H101.803V14.5114H101.962C102.241 13.5038 102.695 12.7547 103.325 12.2642C103.954 11.767 104.687 11.5185 105.522 11.5185C105.747 11.5185 105.979 11.535 106.218 11.5682C106.457 11.5947 106.679 11.6378 106.884 11.6974V15.9233C106.652 15.8437 106.347 15.7808 105.969 15.7344C105.598 15.688 105.267 15.6648 104.975 15.6648C104.398 15.6648 103.878 15.794 103.414 16.0526C102.957 16.3045 102.595 16.6591 102.33 17.1165C102.072 17.5672 101.942 18.0975 101.942 18.7074V27H97.0803ZM108.865 27V11.7273H113.728V27H108.865ZM111.301 9.94744C110.619 9.94744 110.032 9.72206 109.542 9.27131C109.051 8.81392 108.806 8.26373 108.806 7.62074C108.806 6.98437 109.051 6.44081 109.542 5.99006C110.032 5.53267 110.619 5.30398 111.301 5.30398C111.991 5.30398 112.578 5.53267 113.061 5.99006C113.552 6.44081 113.797 6.98437 113.797 7.62074C113.797 8.26373 113.552 8.81392 113.061 9.27131C112.578 9.72206 111.991 9.94744 111.301 9.94744ZM116.822 27V6.63636H121.685V14.3423H121.784C121.983 13.8783 122.265 13.4309 122.629 13C123 12.5691 123.471 12.2178 124.041 11.946C124.618 11.6676 125.307 11.5284 126.109 11.5284C127.17 11.5284 128.161 11.8068 129.082 12.3636C130.01 12.9205 130.759 13.7789 131.33 14.9389C131.9 16.099 132.185 17.5772 132.185 19.3736C132.185 21.1037 131.91 22.5521 131.359 23.7188C130.816 24.8854 130.08 25.7604 129.152 26.3438C128.231 26.9271 127.206 27.2188 126.08 27.2188C125.311 27.2188 124.644 27.0928 124.081 26.8409C123.518 26.589 123.044 26.2576 122.659 25.8466C122.281 25.4356 121.99 24.9948 121.784 24.5241H121.635V27H116.822ZM121.585 19.3636C121.585 20.1856 121.695 20.9015 121.913 21.5114C122.139 22.1212 122.46 22.5952 122.878 22.9332C123.302 23.2647 123.809 23.4304 124.399 23.4304C124.996 23.4304 125.503 23.2647 125.92 22.9332C126.338 22.5952 126.653 22.1212 126.865 21.5114C127.084 20.9015 127.193 20.1856 127.193 19.3636C127.193 18.5417 127.084 17.8291 126.865 17.2259C126.653 16.6226 126.338 16.1553 125.92 15.8239C125.509 15.4924 125.002 15.3267 124.399 15.3267C123.803 15.3267 123.295 15.4891 122.878 15.8139C122.46 16.1387 122.139 16.6027 121.913 17.206C121.695 17.8092 121.585 18.5284 121.585 19.3636ZM141.872 27.2884C140.274 27.2884 138.895 26.9735 137.735 26.3438C136.582 25.7074 135.694 24.8026 135.071 23.6293C134.454 22.4493 134.146 21.0473 134.146 19.4233C134.146 17.8456 134.458 16.4669 135.081 15.2869C135.704 14.1004 136.582 13.179 137.716 12.5227C138.849 11.8598 140.185 11.5284 141.723 11.5284C142.81 11.5284 143.804 11.6974 144.706 12.0355C145.607 12.3736 146.386 12.8741 147.042 13.5369C147.699 14.1998 148.209 15.0185 148.574 15.9929C148.938 16.9607 149.12 18.071 149.12 19.3239V20.5369H135.846V17.7131H144.596C144.59 17.196 144.467 16.7353 144.228 16.331C143.99 15.9266 143.662 15.6117 143.244 15.3864C142.833 15.1544 142.359 15.0384 141.822 15.0384C141.279 15.0384 140.791 15.161 140.36 15.4062C139.93 15.6449 139.588 15.973 139.336 16.3906C139.084 16.8016 138.952 17.2689 138.939 17.7926V20.6662C138.939 21.2893 139.061 21.8362 139.306 22.3068C139.552 22.7708 139.9 23.1321 140.35 23.3906C140.801 23.6491 141.338 23.7784 141.961 23.7784C142.392 23.7784 142.783 23.7187 143.135 23.5994C143.486 23.4801 143.788 23.3045 144.039 23.0724C144.291 22.8404 144.48 22.5554 144.606 22.2173L149.071 22.3466C148.885 23.3475 148.477 24.2192 147.848 24.9616C147.225 25.6974 146.406 26.2708 145.392 26.6818C144.377 27.0862 143.204 27.2884 141.872 27.2884Z" fill="white"></path>
  <path d="M154.649 6.63636H160.744L163.827 19.2443H164.065L171.324 6.63636H177.419L174.038 27H169.246L171.324 14.4915H171.155L164.214 26.8707H161.162L158.338 14.4219H158.169L156.061 27H151.268L154.649 6.63636ZM184.208 27.2884C182.61 27.2884 181.284 26.9735 180.23 26.3438C179.183 25.7074 178.447 24.8026 178.023 23.6293C177.599 22.4493 177.523 21.0473 177.794 19.4233C178.06 17.8456 178.6 16.4669 179.415 15.2869C180.237 14.1004 181.271 13.179 182.517 12.5227C183.764 11.8598 185.152 11.5284 186.684 11.5284C187.771 11.5284 188.735 11.6974 189.577 12.0355C190.419 12.3736 191.115 12.8774 191.665 13.5469C192.215 14.2098 192.59 15.0251 192.789 15.9929C192.988 16.9607 192.981 18.071 192.769 19.3239L192.58 20.5369H179.316L179.763 17.7131H188.513C188.593 17.196 188.55 16.7353 188.384 16.331C188.218 15.9266 187.95 15.6117 187.578 15.3864C187.214 15.1544 186.766 15.0384 186.236 15.0384C185.699 15.0384 185.195 15.1643 184.725 15.4162C184.261 15.6615 183.866 15.9929 183.542 16.4105C183.217 16.8281 183.005 17.2988 182.905 17.8224L182.378 20.7159C182.272 21.3589 182.302 21.9091 182.468 22.3665C182.633 22.8239 182.918 23.1752 183.323 23.4205C183.727 23.6591 184.248 23.7784 184.884 23.7784C185.308 23.7784 185.706 23.7221 186.077 23.6094C186.448 23.4901 186.78 23.3144 187.071 23.0824C187.37 22.8437 187.612 22.5554 187.797 22.2173L192.232 22.3466C191.874 23.3475 191.32 24.2192 190.571 24.9616C189.822 25.6974 188.908 26.2708 187.827 26.6818C186.753 27.0862 185.547 27.2884 184.208 27.2884ZM203.038 6.63636L200.254 20.7656H196.197L198.076 6.63636H203.038ZM197.38 27.2884C196.657 27.2884 196.067 27.0365 195.61 26.5327C195.153 26.0289 194.954 25.419 195.013 24.7031C195.08 24.0005 195.391 23.4006 195.948 22.9034C196.505 22.4062 197.141 22.1577 197.857 22.1577C198.54 22.1577 199.113 22.4062 199.577 22.9034C200.048 23.4006 200.25 24.0005 200.184 24.7031C200.144 25.1804 199.982 25.6146 199.697 26.0057C199.418 26.3968 199.074 26.7083 198.663 26.9403C198.252 27.1723 197.824 27.2884 197.38 27.2884Z" fill="url(#paint0_linear_46_6)"></path>
  <defs>
    <linearGradient id="paint0_linear_46_6" x1="177.5" y1="0" x2="195.609" y2="49.6856" gradientUnits="userSpaceOnUse">
      <stop stop-color="#4917B1"></stop>
      <stop offset="1" stop-color="#AE93D6"></stop>
    </linearGradient>
  </defs>
</svg>
