<?xml version="1.0" encoding="UTF-8"?>
<svg xmlns="http://www.w3.org/2000/svg" width="44" height="43" viewBox="0 0 44 43" fill="none">
  <g id="Frame" clip-path="url(#clip0_1049_4799)">
    <path id="Vector" d="M34.8173 9.27808C35.351 9.27808 35.778 8.85113 35.778 8.31745V2.92724C35.778 1.32619 34.4615 0.00976562 32.8605 0.00976562H3.79247C2.19142 0.00976562 0.875 1.32619 0.875 2.92724V39.3423C0.875 40.9433 2.19142 42.2598 3.79247 42.2598H12.8295C13.3632 42.2598 13.7902 41.8328 13.7902 41.2991C13.7902 40.7654 13.3632 40.3385 12.8295 40.3385H3.68574C3.20542 40.3385 2.81405 39.9471 2.81405 39.4668V2.8205C2.81405 2.34019 3.20542 1.94882 3.68574 1.94882H32.985C33.4653 1.94882 33.8567 2.34019 33.8567 2.8205V8.31745C33.8567 8.85113 34.2836 9.27808 34.8173 9.27808Z" fill="#AE93D6"></path>
    <path id="Vector_2" d="M27.488 40.3217C26.9543 40.3217 26.5273 40.7486 26.5273 41.2823C26.5273 41.816 26.9543 42.2429 27.488 42.2429H32.8782C34.4792 42.2429 35.7957 40.9265 35.7957 39.3255V33.9352C35.7957 33.4016 35.3687 32.9746 34.835 32.9746C34.3013 32.9746 33.8744 33.4016 33.8744 33.9352V39.4322C33.8744 39.9125 33.483 40.3039 33.0027 40.3039H27.5058L27.488 40.3217Z" fill="#AE93D6"></path>
    <path id="Vector_3" d="M12.8294 14.6699H9.16473C8.63105 14.6699 8.2041 15.0969 8.2041 15.6306C8.2041 16.1642 8.63105 16.5912 9.16473 16.5912H12.8294C13.363 16.5912 13.79 16.1642 13.79 15.6306C13.79 15.0969 13.363 14.6699 12.8294 14.6699Z" fill="#AE93D6"></path>
    <path id="Vector_4" d="M25.6561 14.6699H18.3268C17.7932 14.6699 17.3662 15.0969 17.3662 15.6306C17.3662 16.1642 17.7932 16.5912 18.3268 16.5912H25.6561C26.1898 16.5912 26.6167 16.1642 26.6167 15.6306C26.6167 15.0969 26.1898 14.6699 25.6561 14.6699Z" fill="#AE93D6"></path>
    <path id="Vector_5" d="M22.0089 7.33789H14.6618C14.1281 7.33789 13.7012 7.76484 13.7012 8.29852C13.7012 8.83221 14.1281 9.25915 14.6618 9.25915H21.9911C22.5248 9.25915 22.9517 8.83221 22.9517 8.29852C22.9517 7.76484 22.5248 7.33789 21.9911 7.33789H22.0089Z" fill="#AE93D6"></path>
    <path id="Vector_6" d="M18.3439 21.998H9.18231C8.64863 21.998 8.22168 22.425 8.22168 22.9587C8.22168 23.4924 8.64863 23.9193 9.18231 23.9193H18.3439C18.8776 23.9193 19.3045 23.4924 19.3045 22.9587C19.3045 22.425 18.8776 21.998 18.3439 21.998Z" fill="#AE93D6"></path>
    <path id="Vector_7" d="M12.8294 29.3262H9.16473C8.63105 29.3262 8.2041 29.7531 8.2041 30.2868C8.2041 30.8205 8.63105 31.2474 9.16473 31.2474H12.8294C13.363 31.2474 13.79 30.8205 13.79 30.2868C13.79 29.7531 13.363 29.3262 12.8294 29.3262Z" fill="#AE93D6"></path>
    <path id="Vector_8" d="M19.4832 29.6134C19.3586 29.7379 19.2697 29.898 19.2341 30.0581L17.4018 37.3874C17.3129 37.7076 17.4018 38.0634 17.6509 38.3124C17.8821 38.5437 18.2557 38.6504 18.5581 38.5615L25.8874 36.7292C26.0653 36.6936 26.2254 36.6046 26.3321 36.4801L42.823 19.9893C43.0009 19.8114 43.1076 19.5623 43.1076 19.2955C43.1076 19.0464 43.0009 18.7974 42.823 18.6195L37.326 13.1225C37.1481 12.9446 36.8991 12.8379 36.65 12.8379C36.401 12.8379 36.1519 12.9446 35.974 13.1225L19.4832 29.6134ZM25.3359 34.7367C25.2292 34.8435 25.0869 34.9324 24.9445 34.968L21.0664 35.9286C21.0664 35.9286 20.9241 35.9464 20.853 35.9464C20.6217 35.9464 20.4082 35.8575 20.2481 35.6974C20.0346 35.4839 19.9457 35.1815 20.0169 34.879L20.9953 31.0009C21.0309 30.8408 21.1198 30.7163 21.2265 30.5918L23.3791 28.4393L27.5062 32.5664L25.3537 34.7189L25.3359 34.7367ZM37.2726 15.7732L40.1723 18.6728C40.3324 18.8329 40.4214 19.0464 40.4214 19.2777C40.4214 19.5089 40.3324 19.7224 40.1723 19.8825L28.8582 31.1966L28.6981 31.0365L24.7311 27.0695L24.8912 26.9094L36.0452 15.7554C36.3654 15.4352 36.9346 15.4352 37.2726 15.7554V15.7732Z" fill="#AE93D6"></path>
  </g>
  <defs>
    <clipPath id="clip0_1049_4799">
      <rect width="42.25" height="42.25" fill="white" transform="translate(0.875 0.00976562)"></rect>
    </clipPath>
  </defs>
</svg>
