<?xml version="1.0" encoding="UTF-8"?>
<svg xmlns="http://www.w3.org/2000/svg" width="101" height="100" viewBox="0 0 101 100" fill="none">
  <circle cx="50.5" cy="50" r="50" fill="#F7F6FA"></circle>
  <path d="M41 31L48.5 39.5C45 38 42 37.8333 41 38.5L39.5 40L37 42.5C34.6 43.7 32.3333 41.3333 31.5 40C27.5 41.6 24.8333 39 24 37.5L32.5 34L41 31Z" fill="#AE93D6"></path>
  <path d="M59 31L51.5 39.5C55 38 58 37.8333 59 38.5L60.5 40L63 42.5C65.4 43.7 67.6667 41.3333 68.5 40C72.5 41.6 75.1667 39 76 37.5L67.5 34L59 31Z" fill="#AE93D6"></path>
  <path d="M53.064 71.2022C52.9398 68.215 48.5322 67.5475 48.4868 67.5427C47.1378 67.3458 45.1847 66.0275 45.1847 64.1593C45.1847 61.7796 47.1593 60.6967 49.067 59.6473C49.4228 59.4528 49.7905 59.2511 50.1439 59.0422C50.3229 58.9365 50.5044 58.8309 50.6859 58.7252C52.6915 57.5582 54.5873 56.4584 54.5873 54.146C54.5873 52.1505 51.1061 50.801 49.7475 50.4432C49.5374 50.4 47.4434 49.9606 45.3112 49.0673C42.224 47.773 40.6577 46.2074 40.6577 44.4137C40.6577 43.3571 41.0159 42.5335 41.7202 41.9644C43.3749 40.6293 46.357 41.28 46.4836 41.3088L46.2759 42.2453C46.2496 42.2381 43.6112 41.669 42.3147 42.7136C41.842 43.0954 41.6104 43.6524 41.6104 44.4137C41.6104 47.2159 47.6273 49.0385 49.9457 49.5019L49.972 49.5067C50.1988 49.5668 55.54 50.9907 55.54 54.1412C55.54 57.0083 53.3147 58.3026 51.161 59.5537C50.9819 59.6569 50.8029 59.7626 50.6262 59.8658C50.2585 60.0819 49.886 60.2885 49.5231 60.4878C47.7061 61.4843 46.1374 62.3463 46.1374 64.1569C46.1374 65.516 47.7538 66.4621 48.6182 66.5894C48.6683 66.5966 49.917 66.7815 51.1992 67.4082C52.9756 68.2775 53.9474 69.5742 54.0143 71.1614L53.0592 71.2022H53.064Z" fill="#34166E"></path>
  <path d="M46.6865 71.2026L45.7315 71.1618C45.7792 69.9875 46.3141 68.9814 47.3193 68.1746L47.9138 68.9262C47.1354 69.5505 46.7223 70.3165 46.6841 71.2002L46.6865 71.2026Z" fill="#34166E"></path>
  <path d="M53.0783 66.9667L52.5435 66.1719C53.2096 65.7181 53.6084 64.9665 53.6084 64.1597C53.6084 63.1079 53.1141 62.3179 51.9513 61.5135L52.4933 60.721C53.4579 61.3886 54.5634 62.3803 54.5634 64.1573C54.5634 65.2835 54.0095 66.3352 53.0783 66.9667Z" fill="#34166E"></path>
  <path d="M46.412 58.1709C45.4664 57.4481 44.2081 56.2427 44.2081 54.144C44.2081 53.0586 44.8313 52.0669 46.0586 51.1952L46.6101 51.9804C45.6503 52.6624 45.1632 53.39 45.1632 54.144C45.1632 55.4334 45.7267 56.4396 46.9898 57.4049L46.412 58.1685V58.1709Z" fill="#34166E"></path>
  <path d="M53.243 49.5263L52.9279 48.6186C54.8738 47.9343 58.1377 46.4767 58.1377 44.4116C58.1377 43.6504 57.9085 43.0957 57.4334 42.7115C56.1369 41.6646 53.4985 42.2361 53.4723 42.2433L53.2645 41.3068C53.3911 41.278 56.3733 40.6296 58.0279 41.9623C58.7323 42.5314 59.0904 43.3551 59.0904 44.4116C59.0904 46.4095 57.0681 48.1768 53.2407 49.5239L53.243 49.5263Z" fill="#34166E"></path>
  <path d="M50.2561 52.4006H49.301V56.6125H50.2561V52.4006Z" fill="#34166E"></path>
  <path d="M50.2561 33.798H49.301V47.346H50.2561V33.798Z" fill="#34166E"></path>
  <path d="M50.2561 62.0129H49.301V65.4347H50.2561V62.0129Z" fill="#34166E"></path>
  <path d="M50.2561 70.0668H49.301V73.4886H50.2561V70.0668Z" fill="#34166E"></path>
  <path d="M35.806 43.283C33.669 43.283 31.9929 41.41 31.4461 40.7209C30.9232 40.8025 29.7915 40.9346 28.526 40.8049C26.1957 40.5624 24.5506 39.537 23.7698 37.8345L23.5 37.2462L24.1399 37.1574C24.1685 37.1526 27.1555 36.7275 30.7346 34.8882C31.5655 34.4607 32.3248 34.0357 33.0602 33.6227C35.5433 32.23 37.6875 31.0293 40.5789 31.0293C42.5344 31.0293 43.8357 32.8735 45.094 34.6601C46.3976 36.509 47.7443 38.418 49.7929 38.4781L49.7666 39.4386C47.2429 39.3665 45.6885 37.1622 44.3156 35.2171C43.1456 33.5579 42.0402 31.9922 40.5789 31.9922C37.9358 31.9922 35.9898 33.0824 33.5258 34.4655C32.7856 34.881 32.0192 35.3108 31.1715 35.7454C28.4353 37.1526 26.0715 37.7577 24.9541 37.9882C26.7997 40.6824 31.5058 39.7411 31.556 39.7291L31.864 39.6643L32.0454 39.9236C32.0621 39.9476 33.7454 42.3249 35.8084 42.3249C37.8713 42.3249 38.3011 40.997 38.3226 40.9394L38.3369 40.9058C38.4515 40.656 39.5045 38.4757 41.1376 38.4757V39.4362C40.2709 39.4362 39.4567 40.7665 39.2084 41.2972C39.1129 41.5397 38.325 43.283 35.8084 43.283H35.806Z" fill="#34166E"></path>
  <path d="M63.7511 43.283C61.2321 43.283 60.4466 41.5373 60.3511 41.2972C60.1028 40.7689 59.291 39.4362 58.4219 39.4362V38.4757C60.055 38.4757 61.108 40.656 61.2226 40.9058L61.2369 40.9418C61.256 40.9946 61.7909 42.3225 63.7511 42.3225C65.8141 42.3225 67.4974 39.9452 67.5141 39.9212L67.6955 39.6619L68.0035 39.7243C68.0537 39.7339 72.7598 40.6752 74.6054 37.9834C73.488 37.7529 71.1242 37.1478 68.3879 35.7406C67.5403 35.306 66.7739 34.8762 66.0337 34.4607C63.5697 33.08 61.6237 31.9874 58.9806 31.9874C57.5193 31.9874 56.4138 33.5531 55.2439 35.2123C53.871 37.1574 52.3166 39.3617 49.7929 39.4338L49.7666 38.4733C51.8152 38.4156 53.1619 36.5042 54.4655 34.6552C55.7238 32.8711 57.0251 31.0245 58.9806 31.0245C61.872 31.0245 64.0162 32.2276 66.4993 33.6179C67.2323 34.0285 67.9916 34.4535 68.8249 34.8834C72.4016 36.7227 75.3886 37.1478 75.4196 37.1526L76.0595 37.2414L75.7897 37.8297C75.0089 39.5322 73.3638 40.5576 71.0335 40.8001C69.768 40.9322 68.6363 40.8001 68.1134 40.7161C67.5666 41.4076 65.8905 43.2782 63.7535 43.2782L63.7511 43.283Z" fill="#34166E"></path>
  <path d="M49.7786 34.2783C47.7825 34.2783 46.1613 32.6454 46.1613 30.6403C46.1613 28.6353 47.7849 27 49.7786 27C51.7722 27 53.3958 28.6329 53.3958 30.6379C53.3958 32.643 51.7722 34.2758 49.7786 34.2758V34.2783ZM49.7786 27.9605C48.3101 27.9605 47.1163 29.1611 47.1163 30.6379C47.1163 32.1147 48.3101 33.3153 49.7786 33.3153C51.247 33.3153 52.4408 32.1147 52.4408 30.6379C52.4408 29.1611 51.247 27.9605 49.7786 27.9605Z" fill="#34166E"></path>
  <path d="M53.064 71.2022C52.9398 68.215 48.5322 67.5475 48.4868 67.5427C47.1378 67.3458 45.1847 66.0275 45.1847 64.1593C45.1847 61.7796 47.1593 60.6967 49.067 59.6473C49.4228 59.4528 49.7905 59.2511 50.1439 59.0422C50.3229 58.9365 50.5044 58.8309 50.6859 58.7252C52.6915 57.5582 54.5873 56.4584 54.5873 54.146C54.5873 52.1505 51.1061 50.801 49.7475 50.4432C49.5374 50.4 47.4434 49.9606 45.3112 49.0673C42.224 47.773 40.6577 46.2074 40.6577 44.4137C40.6577 43.3571 41.0159 42.5335 41.7202 41.9644C43.3749 40.6293 46.357 41.28 46.4836 41.3088L46.2759 42.2453C46.2496 42.2381 43.6112 41.669 42.3147 42.7136C41.842 43.0954 41.6104 43.6524 41.6104 44.4137C41.6104 47.2159 47.6273 49.0385 49.9457 49.5019L49.972 49.5067C50.1988 49.5668 55.54 50.9907 55.54 54.1412C55.54 57.0083 53.3147 58.3026 51.161 59.5537C50.9819 59.6569 50.8029 59.7626 50.6262 59.8658C50.2585 60.0819 49.886 60.2885 49.5231 60.4878C47.7061 61.4843 46.1374 62.3463 46.1374 64.1569C46.1374 65.516 47.7538 66.4621 48.6182 66.5894C48.6683 66.5966 49.917 66.7815 51.1992 67.4082C52.9756 68.2775 53.9474 69.5742 54.0143 71.1614L53.0592 71.2022H53.064Z" stroke="#34166E" stroke-linejoin="round"></path>
  <path d="M46.6865 71.2026L45.7315 71.1618C45.7792 69.9875 46.3141 68.9814 47.3193 68.1746L47.9138 68.9262C47.1354 69.5505 46.7223 70.3165 46.6841 71.2002L46.6865 71.2026Z" stroke="#34166E" stroke-linejoin="round"></path>
  <path d="M53.0783 66.9667L52.5435 66.1719C53.2096 65.7181 53.6084 64.9665 53.6084 64.1597C53.6084 63.1079 53.1141 62.3179 51.9513 61.5135L52.4933 60.721C53.4579 61.3886 54.5634 62.3803 54.5634 64.1573C54.5634 65.2835 54.0095 66.3352 53.0783 66.9667Z" stroke="#34166E" stroke-linejoin="round"></path>
  <path d="M46.412 58.1709C45.4664 57.4481 44.2081 56.2427 44.2081 54.144C44.2081 53.0586 44.8313 52.0669 46.0586 51.1952L46.6101 51.9804C45.6503 52.6624 45.1632 53.39 45.1632 54.144C45.1632 55.4334 45.7267 56.4396 46.9898 57.4049L46.412 58.1685V58.1709Z" stroke="#34166E" stroke-linejoin="round"></path>
  <path d="M53.243 49.5263L52.9279 48.6186C54.8738 47.9343 58.1377 46.4767 58.1377 44.4116C58.1377 43.6504 57.9085 43.0957 57.4334 42.7115C56.1369 41.6646 53.4985 42.2361 53.4723 42.2433L53.2645 41.3068C53.3911 41.278 56.3733 40.6296 58.0279 41.9623C58.7323 42.5314 59.0904 43.3551 59.0904 44.4116C59.0904 46.4095 57.0681 48.1768 53.2407 49.5239L53.243 49.5263Z" stroke="#34166E" stroke-linejoin="round"></path>
  <path d="M50.2561 52.4006H49.301V56.6125H50.2561V52.4006Z" stroke="#34166E" stroke-linejoin="round"></path>
  <path d="M50.2561 33.798H49.301V47.346H50.2561V33.798Z" stroke="#34166E" stroke-linejoin="round"></path>
  <path d="M50.2561 62.0129H49.301V65.4347H50.2561V62.0129Z" stroke="#34166E" stroke-linejoin="round"></path>
  <path d="M50.2561 70.0668H49.301V73.4886H50.2561V70.0668Z" stroke="#34166E" stroke-linejoin="round"></path>
  <path d="M35.806 43.283C33.669 43.283 31.9929 41.41 31.4461 40.7209C30.9232 40.8025 29.7915 40.9346 28.526 40.8049C26.1957 40.5624 24.5506 39.537 23.7698 37.8345L23.5 37.2462L24.1399 37.1574C24.1685 37.1526 27.1555 36.7275 30.7346 34.8882C31.5655 34.4607 32.3248 34.0357 33.0602 33.6227C35.5433 32.23 37.6875 31.0293 40.5789 31.0293C42.5344 31.0293 43.8357 32.8735 45.094 34.6601C46.3976 36.509 47.7443 38.418 49.7929 38.4781L49.7666 39.4386C47.2429 39.3665 45.6885 37.1622 44.3156 35.2171C43.1456 33.5579 42.0402 31.9922 40.5789 31.9922C37.9358 31.9922 35.9898 33.0824 33.5258 34.4655C32.7856 34.881 32.0192 35.3108 31.1715 35.7454C28.4353 37.1526 26.0715 37.7577 24.9541 37.9882C26.7997 40.6824 31.5058 39.7411 31.556 39.7291L31.864 39.6643L32.0454 39.9236C32.0621 39.9476 33.7454 42.3249 35.8084 42.3249C37.8713 42.3249 38.3011 40.997 38.3226 40.9394L38.3369 40.9058C38.4515 40.656 39.5045 38.4757 41.1376 38.4757V39.4362C40.2709 39.4362 39.4567 40.7665 39.2084 41.2972C39.1129 41.5397 38.325 43.283 35.8084 43.283H35.806Z" stroke="#34166E" stroke-linejoin="round"></path>
  <path d="M63.7511 43.283C61.2321 43.283 60.4466 41.5373 60.3511 41.2972C60.1028 40.7689 59.291 39.4362 58.4219 39.4362V38.4757C60.055 38.4757 61.108 40.656 61.2226 40.9058L61.2369 40.9418C61.256 40.9946 61.7909 42.3225 63.7511 42.3225C65.8141 42.3225 67.4974 39.9452 67.5141 39.9212L67.6955 39.6619L68.0035 39.7243C68.0537 39.7339 72.7598 40.6752 74.6054 37.9834C73.488 37.7529 71.1242 37.1478 68.3879 35.7406C67.5403 35.306 66.7739 34.8762 66.0337 34.4607C63.5697 33.08 61.6237 31.9874 58.9806 31.9874C57.5193 31.9874 56.4138 33.5531 55.2439 35.2123C53.871 37.1574 52.3166 39.3617 49.7929 39.4338L49.7666 38.4733C51.8152 38.4156 53.1619 36.5042 54.4655 34.6552C55.7238 32.8711 57.0251 31.0245 58.9806 31.0245C61.872 31.0245 64.0162 32.2276 66.4993 33.6179C67.2323 34.0285 67.9916 34.4535 68.8249 34.8834C72.4016 36.7227 75.3886 37.1478 75.4196 37.1526L76.0595 37.2414L75.7897 37.8297C75.0089 39.5322 73.3638 40.5576 71.0335 40.8001C69.768 40.9322 68.6363 40.8001 68.1134 40.7161C67.5666 41.4076 65.8905 43.2782 63.7535 43.2782L63.7511 43.283Z" stroke="#34166E" stroke-linejoin="round"></path>
  <path d="M49.7786 34.2783C47.7825 34.2783 46.1613 32.6454 46.1613 30.6403C46.1613 28.6353 47.7849 27 49.7786 27C51.7722 27 53.3958 28.6329 53.3958 30.6379C53.3958 32.643 51.7722 34.2758 49.7786 34.2758V34.2783ZM49.7786 27.9605C48.3101 27.9605 47.1163 29.1611 47.1163 30.6379C47.1163 32.1147 48.3101 33.3153 49.7786 33.3153C51.247 33.3153 52.4408 32.1147 52.4408 30.6379C52.4408 29.1611 51.247 27.9605 49.7786 27.9605Z" stroke="#34166E" stroke-linejoin="round"></path>
</svg>
