<?xml version="1.0" encoding="UTF-8"?>
<svg xmlns="http://www.w3.org/2000/svg" width="54" height="48" viewBox="0 0 54 48" fill="none">
  <g id="Vector">
    <path d="M30.2493 44.7377C30.1265 41.7819 25.7652 41.1213 25.7203 41.1166C24.3855 40.9217 22.4529 39.6173 22.4529 37.7688C22.4529 35.4141 24.4067 34.3425 26.2944 33.3042C26.6464 33.1117 27.0103 32.9121 27.3599 32.7054C27.5371 32.6009 27.7167 32.4963 27.8962 32.3918C29.8808 31.237 31.7567 30.1488 31.7567 27.8607C31.7567 25.8862 28.312 24.5509 26.9677 24.1969C26.7598 24.1541 24.6879 23.7193 22.5781 22.8354C19.5233 21.5547 17.9735 20.0055 17.9735 18.2306C17.9735 17.1852 18.3279 16.3702 19.0248 15.8071C20.6621 14.486 23.6129 15.1299 23.7381 15.1584L23.5326 16.0851C23.5066 16.078 20.896 15.5148 19.6131 16.5484C19.1453 16.9262 18.9161 17.4774 18.9161 18.2306C18.9161 21.0035 24.8698 22.8069 27.1638 23.2654L27.1898 23.2702C27.4143 23.3296 32.6993 24.7386 32.6993 27.8559C32.6993 30.6929 30.4974 31.9736 28.3664 33.2115C28.1892 33.3137 28.012 33.4182 27.8372 33.5204C27.4733 33.7342 27.1048 33.9386 26.7457 34.1358C24.9478 35.1219 23.3955 35.9748 23.3955 37.7664C23.3955 39.1112 24.995 40.0474 25.8503 40.1733C25.8999 40.1804 27.1355 40.3634 28.4042 40.9835C30.1619 41.8437 31.1235 43.1267 31.1896 44.6973L30.2446 44.7377H30.2493Z" fill="#AE93D6"></path>
    <path d="M23.9389 44.738L22.9939 44.6976C23.0412 43.5357 23.5704 42.5402 24.565 41.7418L25.1533 42.4855C24.3831 43.1033 23.9744 43.8613 23.9366 44.7356L23.9389 44.738Z" fill="#AE93D6"></path>
    <path d="M30.2635 40.5467L29.7343 39.7602C30.3935 39.3112 30.788 38.5675 30.788 37.7691C30.788 36.7284 30.299 35.9467 29.1484 35.1507L29.6847 34.3666C30.6392 35.0272 31.733 36.0085 31.733 37.7667C31.733 38.8811 31.1849 39.9218 30.2635 40.5467Z" fill="#AE93D6"></path>
    <path d="M23.6672 31.8433C22.7317 31.1281 21.4866 29.9353 21.4866 27.8587C21.4866 26.7847 22.1032 25.8034 23.3176 24.9409L23.8633 25.7179C22.9136 26.3927 22.4316 27.1126 22.4316 27.8587C22.4316 29.1346 22.9892 30.1302 24.239 31.0853L23.6672 31.8409V31.8433Z" fill="#AE93D6"></path>
    <path d="M30.4265 23.2896L30.1147 22.3914C32.0402 21.7143 35.2698 20.272 35.2698 18.2286C35.2698 17.4754 35.043 16.9265 34.5728 16.5464C33.29 15.5104 30.6793 16.0759 30.6533 16.0831L30.4478 15.1564C30.573 15.1279 33.5239 14.4864 35.1611 15.8051C35.8581 16.3682 36.2124 17.1832 36.2124 18.2286C36.2124 20.2055 34.2114 21.9542 30.4242 23.2872L30.4265 23.2896Z" fill="#AE93D6"></path>
    <path d="M27.471 26.1337H26.5259V30.3012H27.471V26.1337Z" fill="#AE93D6"></path>
    <path d="M27.471 7.72655H26.5259V21.1321H27.471V7.72655Z" fill="#AE93D6"></path>
    <path d="M27.471 35.6449H26.5259V39.0308H27.471V35.6449Z" fill="#AE93D6"></path>
    <path d="M27.471 43.6142H26.5259V47H27.471V43.6142Z" fill="#AE93D6"></path>
    <path d="M13.1727 17.1119C11.0582 17.1119 9.39973 15.2586 8.8587 14.5767C8.3413 14.6574 7.22145 14.7881 5.96929 14.6598C3.66343 14.4198 2.03562 13.4053 1.26306 11.7207L0.996094 11.1385L1.62926 11.0506C1.65761 11.0459 4.61318 10.6253 8.15466 8.80527C8.97683 8.38233 9.72812 7.96178 10.4558 7.5531C12.9129 6.175 15.0344 4.98698 17.8955 4.98698C19.8304 4.98698 21.118 6.81178 22.3631 8.57955C23.6531 10.4091 24.9856 12.298 27.0126 12.3574L26.9866 13.3078C24.4894 13.2366 22.9514 11.0554 21.5929 9.13078C20.4353 7.48895 19.3414 5.93977 17.8955 5.93977C15.2801 5.93977 13.3547 7.01849 10.9165 8.38709C10.1841 8.79814 9.42572 9.22345 8.58701 9.65351C5.87951 11.0459 3.54057 11.6446 2.43489 11.8727C4.26116 14.5386 8.91776 13.6072 8.96738 13.5953L9.27215 13.5312L9.4517 13.7878C9.46824 13.8116 11.1338 16.1638 13.1751 16.1638C15.2164 16.1638 15.6416 14.8499 15.6629 14.7929L15.6771 14.7596C15.7905 14.5125 16.8324 12.3551 18.4483 12.3551V13.3055C17.5907 13.3055 16.7851 14.6218 16.5394 15.1469C16.4449 15.3869 15.6652 17.1119 13.1751 17.1119H13.1727Z" fill="#AE93D6"></path>
    <path d="M40.8242 17.1119C38.3317 17.1119 37.5544 15.3845 37.4599 15.1469C37.2142 14.6242 36.4109 13.3055 35.5509 13.3055V12.3551C37.1669 12.3551 38.2088 14.5125 38.3222 14.7596L38.3364 14.7952C38.3553 14.8475 38.8845 16.1615 40.8242 16.1615C42.8654 16.1615 44.531 13.8092 44.5476 13.7854L44.7271 13.5288L45.0319 13.5906C45.0815 13.6001 49.7381 14.5315 51.5644 11.868C50.4587 11.6399 48.1198 11.0411 45.4123 9.64876C44.5736 9.2187 43.8152 8.79339 43.0828 8.38233C40.6446 7.01612 38.7191 5.93502 36.1038 5.93502C34.6579 5.93502 33.564 7.48419 32.4064 9.12603C31.0479 11.0506 29.5099 13.2318 27.0126 13.3031L26.9866 12.3527C29.0137 12.2957 30.3462 10.4043 31.6362 8.57479C32.8812 6.8094 34.1688 4.98223 36.1038 4.98223C38.9648 4.98223 41.0864 6.17262 43.5435 7.54835C44.2688 7.95465 45.0201 8.37521 45.8446 8.80052C49.3837 10.6206 52.3393 11.0411 52.37 11.0459L53.0032 11.1338L52.7362 11.7159C51.9637 13.4005 50.3359 14.4151 48.03 14.6551C46.7778 14.7857 45.658 14.6551 45.1406 14.5719C44.5995 15.2562 42.941 17.1071 40.8265 17.1071L40.8242 17.1119Z" fill="#AE93D6"></path>
    <path d="M26.9985 8.20176C25.0234 8.20176 23.4192 6.58605 23.4192 4.60207C23.4192 2.61808 25.0257 1 26.9985 1C28.9712 1 30.5777 2.6157 30.5777 4.59969C30.5777 6.58368 28.9712 8.19938 26.9985 8.19938V8.20176ZM26.9985 1.95041C25.5455 1.95041 24.3642 3.13843 24.3642 4.59969C24.3642 6.06095 25.5455 7.24897 26.9985 7.24897C28.4514 7.24897 29.6327 6.06095 29.6327 4.59969C29.6327 3.13843 28.4514 1.95041 26.9985 1.95041Z" fill="#AE93D6"></path>
    <path d="M30.2493 44.7377C30.1265 41.7819 25.7652 41.1213 25.7203 41.1166C24.3855 40.9217 22.4529 39.6173 22.4529 37.7688C22.4529 35.4141 24.4067 34.3425 26.2944 33.3042C26.6464 33.1117 27.0103 32.9121 27.3599 32.7054C27.5371 32.6009 27.7167 32.4963 27.8962 32.3918C29.8808 31.237 31.7567 30.1488 31.7567 27.8607C31.7567 25.8862 28.312 24.5509 26.9677 24.1969C26.7598 24.1541 24.6879 23.7193 22.5781 22.8354C19.5233 21.5547 17.9735 20.0055 17.9735 18.2306C17.9735 17.1852 18.3279 16.3702 19.0248 15.8071C20.6621 14.486 23.6129 15.1299 23.7381 15.1584L23.5326 16.0851C23.5066 16.078 20.896 15.5148 19.6131 16.5484C19.1453 16.9262 18.9161 17.4774 18.9161 18.2306C18.9161 21.0035 24.8698 22.8069 27.1638 23.2654L27.1898 23.2702C27.4143 23.3296 32.6993 24.7386 32.6993 27.8559C32.6993 30.6929 30.4974 31.9736 28.3664 33.2115C28.1892 33.3137 28.012 33.4182 27.8372 33.5204C27.4733 33.7342 27.1048 33.9386 26.7457 34.1358C24.9478 35.1219 23.3955 35.9748 23.3955 37.7664C23.3955 39.1112 24.995 40.0474 25.8503 40.1733C25.8999 40.1804 27.1355 40.3634 28.4042 40.9835C30.1619 41.8437 31.1235 43.1267 31.1896 44.6973L30.2446 44.7377H30.2493Z" stroke="#AE93D6" stroke-width="0.75" stroke-linejoin="round"></path>
    <path d="M23.9389 44.738L22.9939 44.6976C23.0412 43.5357 23.5704 42.5402 24.565 41.7418L25.1533 42.4855C24.3831 43.1033 23.9744 43.8613 23.9366 44.7356L23.9389 44.738Z" stroke="#AE93D6" stroke-width="0.75" stroke-linejoin="round"></path>
    <path d="M30.2635 40.5467L29.7343 39.7602C30.3935 39.3112 30.788 38.5675 30.788 37.7691C30.788 36.7284 30.299 35.9467 29.1484 35.1507L29.6847 34.3666C30.6392 35.0272 31.733 36.0085 31.733 37.7667C31.733 38.8811 31.1849 39.9218 30.2635 40.5467Z" stroke="#AE93D6" stroke-width="0.75" stroke-linejoin="round"></path>
    <path d="M23.6672 31.8433C22.7317 31.1281 21.4866 29.9353 21.4866 27.8587C21.4866 26.7847 22.1032 25.8034 23.3176 24.9409L23.8633 25.7179C22.9136 26.3927 22.4316 27.1126 22.4316 27.8587C22.4316 29.1346 22.9892 30.1302 24.239 31.0853L23.6672 31.8409V31.8433Z" stroke="#AE93D6" stroke-width="0.75" stroke-linejoin="round"></path>
    <path d="M30.4265 23.2896L30.1147 22.3914C32.0402 21.7143 35.2698 20.272 35.2698 18.2286C35.2698 17.4754 35.043 16.9265 34.5728 16.5464C33.29 15.5104 30.6793 16.0759 30.6533 16.0831L30.4478 15.1564C30.573 15.1279 33.5239 14.4864 35.1611 15.8051C35.8581 16.3682 36.2124 17.1832 36.2124 18.2286C36.2124 20.2055 34.2114 21.9542 30.4242 23.2872L30.4265 23.2896Z" stroke="#AE93D6" stroke-width="0.75" stroke-linejoin="round"></path>
    <path d="M27.471 26.1337H26.5259V30.3012H27.471V26.1337Z" stroke="#AE93D6" stroke-width="0.75" stroke-linejoin="round"></path>
    <path d="M27.471 7.72655H26.5259V21.1321H27.471V7.72655Z" stroke="#AE93D6" stroke-width="0.75" stroke-linejoin="round"></path>
    <path d="M27.471 35.6449H26.5259V39.0308H27.471V35.6449Z" stroke="#AE93D6" stroke-width="0.75" stroke-linejoin="round"></path>
    <path d="M27.471 43.6142H26.5259V47H27.471V43.6142Z" stroke="#AE93D6" stroke-width="0.75" stroke-linejoin="round"></path>
    <path d="M13.1727 17.1119C11.0582 17.1119 9.39973 15.2586 8.8587 14.5767C8.3413 14.6574 7.22145 14.7881 5.96929 14.6598C3.66343 14.4198 2.03562 13.4053 1.26306 11.7207L0.996094 11.1385L1.62926 11.0506C1.65761 11.0459 4.61318 10.6253 8.15466 8.80527C8.97683 8.38233 9.72812 7.96178 10.4558 7.5531C12.9129 6.175 15.0344 4.98698 17.8955 4.98698C19.8304 4.98698 21.118 6.81178 22.3631 8.57955C23.6531 10.4091 24.9856 12.298 27.0126 12.3574L26.9866 13.3078C24.4894 13.2366 22.9514 11.0554 21.5929 9.13078C20.4353 7.48895 19.3414 5.93977 17.8955 5.93977C15.2801 5.93977 13.3547 7.01849 10.9165 8.38709C10.1841 8.79814 9.42572 9.22345 8.58701 9.65351C5.87951 11.0459 3.54057 11.6446 2.43489 11.8727C4.26116 14.5386 8.91776 13.6072 8.96738 13.5953L9.27215 13.5312L9.4517 13.7878C9.46824 13.8116 11.1338 16.1638 13.1751 16.1638C15.2164 16.1638 15.6416 14.8499 15.6629 14.7929L15.6771 14.7596C15.7905 14.5125 16.8324 12.3551 18.4483 12.3551V13.3055C17.5907 13.3055 16.7851 14.6218 16.5394 15.1469C16.4449 15.3869 15.6652 17.1119 13.1751 17.1119H13.1727Z" stroke="#AE93D6" stroke-width="0.75" stroke-linejoin="round"></path>
    <path d="M40.8242 17.1119C38.3317 17.1119 37.5544 15.3845 37.4599 15.1469C37.2142 14.6242 36.4109 13.3055 35.5509 13.3055V12.3551C37.1669 12.3551 38.2088 14.5125 38.3222 14.7596L38.3364 14.7952C38.3553 14.8475 38.8845 16.1615 40.8242 16.1615C42.8654 16.1615 44.531 13.8092 44.5476 13.7854L44.7271 13.5288L45.0319 13.5906C45.0815 13.6001 49.7381 14.5315 51.5644 11.868C50.4587 11.6399 48.1198 11.0411 45.4123 9.64876C44.5736 9.2187 43.8152 8.79339 43.0828 8.38233C40.6446 7.01612 38.7191 5.93502 36.1038 5.93502C34.6579 5.93502 33.564 7.48419 32.4064 9.12603C31.0479 11.0506 29.5099 13.2318 27.0126 13.3031L26.9866 12.3527C29.0137 12.2957 30.3462 10.4043 31.6362 8.57479C32.8812 6.8094 34.1688 4.98223 36.1038 4.98223C38.9648 4.98223 41.0864 6.17262 43.5435 7.54835C44.2688 7.95465 45.0201 8.37521 45.8446 8.80052C49.3837 10.6206 52.3393 11.0411 52.37 11.0459L53.0032 11.1338L52.7362 11.7159C51.9637 13.4005 50.3359 14.4151 48.03 14.6551C46.7778 14.7857 45.658 14.6551 45.1406 14.5719C44.5995 15.2562 42.941 17.1071 40.8265 17.1071L40.8242 17.1119Z" stroke="#AE93D6" stroke-width="0.75" stroke-linejoin="round"></path>
    <path d="M26.9985 8.20176C25.0234 8.20176 23.4192 6.58605 23.4192 4.60207C23.4192 2.61808 25.0257 1 26.9985 1C28.9712 1 30.5777 2.6157 30.5777 4.59969C30.5777 6.58368 28.9712 8.19938 26.9985 8.19938V8.20176ZM26.9985 1.95041C25.5455 1.95041 24.3642 3.13843 24.3642 4.59969C24.3642 6.06095 25.5455 7.24897 26.9985 7.24897C28.4514 7.24897 29.6327 6.06095 29.6327 4.59969C29.6327 3.13843 28.4514 1.95041 26.9985 1.95041Z" stroke="#AE93D6" stroke-width="0.75" stroke-linejoin="round"></path>
  </g>
</svg>
