<?xml version="1.0" encoding="UTF-8"?>
<svg xmlns="http://www.w3.org/2000/svg" width="98" height="30" viewBox="0 0 98 30" fill="none">
  <rect x="0.640625" width="97.3023" height="30" rx="15" fill="white"></rect>
  <path d="M22.8272 12.9298L18.4323 12.2911L16.4677 8.30812C16.414 8.19907 16.3257 8.11079 16.2167 8.05713C15.9432 7.92211 15.6109 8.03463 15.4741 8.30812L13.5095 12.2911L9.11454 12.9298C8.99337 12.9471 8.88259 13.0042 8.79777 13.0908C8.69523 13.1962 8.63873 13.338 8.64067 13.485C8.64262 13.632 8.70286 13.7723 8.80816 13.8749L11.9879 16.9751L11.2367 21.3527C11.2191 21.4545 11.2304 21.5592 11.2692 21.655C11.3081 21.7508 11.373 21.8337 11.4567 21.8944C11.5403 21.9552 11.6392 21.9912 11.7423 21.9986C11.8454 22.0059 11.9485 21.9843 12.0399 21.936L15.9709 19.8692L19.9019 21.936C20.0092 21.9931 20.1339 22.0122 20.2533 21.9914C20.5545 21.9395 20.757 21.6539 20.7051 21.3527L19.9538 16.9751L23.1336 13.8749C23.2202 13.7901 23.2773 13.6793 23.2946 13.5581C23.3413 13.2552 23.1302 12.9748 22.8272 12.9298V12.9298Z" fill="#F8C41C"></path>
  <path d="M39.4877 12.9298L35.0928 12.2911L33.1281 8.30812C33.0745 8.19907 32.9862 8.11079 32.8772 8.05713C32.6037 7.92211 32.2713 8.03463 32.1346 8.30812L30.1699 12.2911L25.775 12.9298C25.6538 12.9471 25.5431 13.0042 25.4582 13.0908C25.3557 13.1962 25.2992 13.338 25.3011 13.485C25.3031 13.632 25.3633 13.7723 25.4686 13.8749L28.6484 16.9751L27.8972 21.3527C27.8795 21.4545 27.8908 21.5592 27.9297 21.655C27.9686 21.7508 28.0335 21.8337 28.1171 21.8944C28.2007 21.9552 28.2997 21.9912 28.4028 21.9986C28.5059 22.0059 28.6089 21.9843 28.7003 21.936L32.6314 19.8692L36.5624 21.936C36.6697 21.9931 36.7943 22.0122 36.9138 21.9914C37.215 21.9395 37.4175 21.6539 37.3656 21.3527L36.6143 16.9751L39.7941 13.8749C39.8806 13.7901 39.9378 13.6793 39.9551 13.5581C40.0018 13.2552 39.7906 12.9748 39.4877 12.9298V12.9298Z" fill="#F8C41C"></path>
  <path d="M56.1482 12.9298L51.7533 12.2911L49.7886 8.30812C49.735 8.19907 49.6467 8.11079 49.5376 8.05713C49.2641 7.92211 48.9318 8.03463 48.795 8.30812L46.8304 12.2911L42.4355 12.9298C42.3143 12.9471 42.2035 13.0042 42.1187 13.0908C42.0162 13.1962 41.9597 13.338 41.9616 13.485C41.9636 13.632 42.0238 13.7723 42.1291 13.8749L45.3089 16.9751L44.5576 21.3527C44.54 21.4545 44.5513 21.5592 44.5902 21.655C44.629 21.7508 44.694 21.8337 44.7776 21.8944C44.8612 21.9552 44.9602 21.9912 45.0632 21.9986C45.1663 22.0059 45.2694 21.9843 45.3608 21.936L49.2918 19.8692L53.2228 21.936C53.3302 21.9931 53.4548 22.0122 53.5742 21.9914C53.8754 21.9395 54.0779 21.6539 54.026 21.3527L53.2748 16.9751L56.4546 13.8749C56.5411 13.7901 56.5982 13.6793 56.6155 13.5581C56.6623 13.2552 56.4511 12.9748 56.1482 12.9298V12.9298Z" fill="#F8C41C"></path>
  <path d="M72.8086 12.9298L68.4137 12.2911L66.4491 8.30812C66.3954 8.19907 66.3071 8.11079 66.1981 8.05713C65.9246 7.92211 65.5922 8.03463 65.4555 8.30812L63.4909 12.2911L59.0959 12.9298C58.9748 12.9471 58.864 13.0042 58.7792 13.0908C58.6766 13.1962 58.6201 13.338 58.6221 13.485C58.624 13.632 58.6843 13.7723 58.7896 13.8749L61.9693 16.9751L61.2181 21.3527C61.2005 21.4545 61.2117 21.5592 61.2506 21.655C61.2895 21.7508 61.3544 21.8337 61.438 21.8944C61.5217 21.9552 61.6206 21.9912 61.7237 21.9986C61.8268 22.0059 61.9299 21.9843 62.0213 21.936L65.9523 19.8692L69.8833 21.936C69.9906 21.9931 70.1153 22.0122 70.2347 21.9914C70.5359 21.9395 70.7384 21.6539 70.6865 21.3527L69.9352 16.9751L73.115 13.8749C73.2016 13.7901 73.2587 13.6793 73.276 13.5581C73.3227 13.2552 73.1116 12.9748 72.8086 12.9298V12.9298Z" fill="#F8C41C"></path>
  <path d="M89.4691 12.9298L85.0742 12.2911L83.1095 8.30812C83.0559 8.19907 82.9676 8.11079 82.8586 8.05713C82.5851 7.92211 82.2527 8.03463 82.116 8.30812L80.1513 12.2911L75.7564 12.9298C75.6352 12.9471 75.5244 13.0042 75.4396 13.0908C75.3371 13.1962 75.2806 13.338 75.2825 13.485C75.2845 13.632 75.3447 13.7723 75.45 13.8749L78.6298 16.9751L77.8786 21.3527C77.8609 21.4545 77.8722 21.5592 77.9111 21.655C77.95 21.7508 78.0149 21.8337 78.0985 21.8944C78.1821 21.9552 78.2811 21.9912 78.3842 21.9986C78.4873 22.0059 78.5903 21.9843 78.6817 21.936L82.6128 19.8692L86.5438 21.936C86.6511 21.9931 86.7757 22.0122 86.8952 21.9914C87.1964 21.9395 87.3989 21.6539 87.3469 21.3527L86.5957 16.9751L89.7755 13.8749C89.862 13.7901 89.9192 13.6793 89.9365 13.5581C89.9832 13.2552 89.772 12.9748 89.4691 12.9298V12.9298Z" fill="#F8C41C"></path>
</svg>
